<?xml version="1.0" standalone="no"?>
<!DOCTYPE svg PUBLIC "-//W3C//DTD SVG 1.1//EN" "http://www.w3.org/Graphics/SVG/1.1/DTD/svg11.dtd" >
<svg xmlns="http://www.w3.org/2000/svg">
<metadata>Generated by IcoMoon</metadata>
<defs>
<font id="icomoon" horiz-adv-x="1024">
<font-face units-per-em="1024" ascent="960" descent="-64" />
<missing-glyph horiz-adv-x="1024" />
<glyph unicode="&#x20;" d="" horiz-adv-x="512" />
<glyph unicode="&#xe600;" d="M939.744 710.048c-1.952 11.008-3.808 22.112-6.72 32.928-14.208 53.088-42.112 96.768-88.672 127.296-35.968 23.616-76.128 34.432-118.592 37.92-0.896 0.128-1.792 0.16-2.656 0.16-8.832 0-16.064-3.808-22.368-10.24-16.992-17.344-34.176-34.592-51.36-51.808-95.328-95.328-190.848-190.624-286.304-285.984-61.632-61.632-123.264-123.296-184.928-184.864l231.584-231.584c42.4 42.592 84.8 85.184 127.328 127.648 77.632 77.632 155.264 155.136 232.928 232.608 3.36 3.328 6.848 6.72 10.176 10.144 47.296 47.008 94.72 93.984 141.888 141.184 15.040 15.040 21.44 33.344 17.696 54.592zM92.256 280.32c-17.664-51.808-35.84-103.616-52.608-155.776-12.192-38.016-20.256-76.96-20.48-117.28-0.064-11.872 4.128-17.344 16-18.528 4.864-0.448 9.824-1.088 14.688-1.088 1.984 0 3.904 0.128 5.824 0.384 21.76 3.136 43.52 6.176 65.024 10.816 55.296 11.712 108.64 30.144 161.984 48.576 10.688 3.68 21.152 7.328 31.552 10.944l-221.984 221.952z" horiz-adv-x="960" />
<glyph unicode="&#xe601;" d="M552.288 579.328c0 88.672 0 175.648 0 262.4 131.84-131.84 263.328-263.296 393.888-393.888-130.528-130.592-262.144-262.176-393.6-393.632 0 85.504 0 172.448 0 260.704-220.928 0-318.336 0-538.72 0 0 88.672 0 176 0 264.384 219.936 0.032 317.12 0.032 538.432 0.032z" horiz-adv-x="960" />
<glyph unicode="&#xe602;" d="M567.072 504.832c-3.264 6.4-7.584 12.48-9.536 19.264-6.656 22.976-21.184 35.552-45.312 36.064-34.368 0.736-68.736 1.152-103.136 1.76-14.752 0.256-21.728-6.048-21.44-21.6 0.608-32.896 0.704-65.792-0.096-98.656-0.384-14.080 5.184-18.4 18.368-18.080 24.672 0.64 49.376-0.096 74.048 0.352 31.744 0.608 37.024 4.768 48.672 35.424 1.504 3.936 3.904 7.488 8.448 16 4.128-8.096 7.808-12.32 8.352-16.928 4.992-41.024 0.448-102.336-10.176-115.168-4.032 10.848-8.064 19.904-10.72 29.376-4.736 16.704-16 25.088-32.64 25.568-29.888 0.832-59.84 1.44-89.696 0.352-4.992-0.16-13.696-9.184-13.824-14.304-1.088-40.384-0.416-80.704-0.576-121.088-0.032-14.176 8.192-21.728 20.672-21.44 40.192 0.96 80.8 0.416 120.352 6.272 29.28 4.384 44.32 30.112 56.704 57.344-6.496 3.36-11.904 6.176-16.864 8.768 0.352 3.008 0.16 5.6 0.704 5.76 35.328 10.56 54.464 39.808 76.192 65.952 25.344 30.432 49.824 61.6 75.296 91.936 7.904 9.376 9.792 17.024 2.144 27.68-26.080 36.448-50.944 73.792-77.248 110.080-18.208 25.152-35.904 51.84-74.112 52.16 1.056 2.528 2.112 5.088 3.232 7.584 53.952 0 107.936 0 161.888 0 0.224-2.048 0.448-4.128 0.672-6.208-7.264-1.088-14.56-2.112-21.824-3.296-15.552-2.496-25.088-11.744-16.48-26.304 20.32-34.24 43.040-67.040 67.136-104 29.056 36.8 55.168 68.32 79.392 101.152 10.432 14.176 4.48 24.64-13.344 28.992-5.856 1.44-11.776 2.624-17.76 3.904 0.256 2.016 0.512 4.032 0.704 6.080 41.536 0 83.040 0 124.576 0-75.296-25.696-101.088-99.040-148.928-149.888-3.904-4.16-3.584-17.248 0.032-22.656 33.504-50.336 67.104-100.832 103.264-149.28 11.616-15.456 31.072-25.056 46.592-37.12-11.488-8.96-136.192-9.28-154.4 2.208 5.824 2.24 10.144 5.152 14.656 5.6 18.752 1.632 27.584 10.848 17.824 28.128-21.856 38.56-45.44 76.128-71.136 118.816-20.128-24.672-36.512-44.608-52.672-64.704-11.264-13.984-22.72-27.808-33.184-42.336-16.8-23.36-12.096-34.56 15.648-39.552 4.736-0.864 9.312-2.688 14.72-9.632-5.28-1.536-10.528-4.224-15.808-4.416-18.72-0.544-37.536 1.056-56.032-0.832-6.752-0.672-16.128-7.744-18.4-14.048-7.296-20.32-10.816-41.984-17.984-62.336-2.24-6.432-11.296-14.944-17.28-15.040-90.496-1.024-181.024-0.864-271.52-0.736-3.136 0-6.208 2.24-10.528 3.904 2.784 3.072 3.872 5.376 5.568 6.016 41.472 15.744 41.792 16.032 41.792 60.768 0.064 74.752 0.064 149.504 0 224.288-0.032 44.096-0.128 44.032-41.152 60.576-1.76 0.704-2.816 3.104-7.264 8.32 12.544 2.304 22.56 4.128 32.48 5.952 0.672 41.408-16.8 61.6-57.952 67.552-52.96 7.68-54.304 6.528-54.304-46.016 0-75.52-0.032-151.040 0-226.56 0.032-47.328 0.128-47.328 45.376-59.232 2.496-0.672 4.544-3.2 6.496-8.416-51.52-5.504-102.944-3.456-154.24-4.48-0.544 2.848-1.056 5.76-1.6 8.672 5.12 1.92 10.208 5.28 15.424 5.504 21.984 0.896 30.176 13.344 30.272 33.6 0.16 41.12 0.48 82.208 0.544 123.328 0.096 50.848-0.512 101.664 0.32 152.512 0.288 17.472-5.216 25.088-23.232 22.624-11.808-1.568-23.84-1.408-35.712-2.752-28.96-3.232-45.28-20.096-51.712-48.032-1.632-7.168-5.824-13.76-8.832-20.576-2.592 0.416-5.152 0.832-7.712 1.312 0 28.384-0.352 56.736 0.672 85.12 0.064 2.304 9.408 6.144 14.496 6.176 93.472 0.352 186.976 0.128 280.448 0.448 13.408 0.032 19.136-4.704 18.24-18.432-0.832-13.408-0.224-26.912-0.288-40.384-0.032-34.432-0.032-34.464 33.312-34.464 59.104-0.032 118.176 0 177.248-0.032 32.64 0 32.64-0.032 32.64-33.632-0.032-14.624-0.032-29.248-0.032-43.84-3.008-0.928-5.984-1.856-8.928-2.752z" horiz-adv-x="960" />
<glyph unicode="&#xe603;" d="M19.2 2.432h267.072c0 213.952 0 201.792 0 415.872h-267.072c0-214.176 0-202.368 0-415.872zM673.888 670.592v-668.064h266.912v668.064h-266.912zM346.72 2.080h266.208v891.84h-266.208v-891.84z" horiz-adv-x="960" />
<glyph unicode="&#xe604;" d="M902.208 833.024c-29.376 19.68-69.12 11.936-88.8-17.376l-423.872-630.048-236 259.264c-23.776 26.112-64.224 28-90.432 4.224-26.112-23.808-28.032-64.256-4.224-90.432l291.968-320.672c12.64-13.888 29.952-20.896 47.328-20.896 15.36 0 30.784 5.504 43.072 16.672 7.264 6.624 12.448 14.56 15.936 23.104l462.4 687.36c19.744 29.312 11.968 69.088-17.376 88.8z" horiz-adv-x="960" />
<glyph unicode="&#xe605;" d="M623.616 726.112c-20.512 13.6-48.256 8.256-62.016-12l-295.936-435.264-164.864 179.136c-16.608 18.016-44.8 19.328-63.104 2.944-18.24-16.48-19.584-44.448-2.944-62.496l203.872-221.536c8.832-9.6 20.896-14.464 33.024-14.464 10.752 0 21.504 3.84 30.048 11.488 5.088 4.608 8.736 10.080 11.168 16l322.912 474.848c13.792 20.256 8.384 47.744-12.16 61.344zM887.712 619.36h-199.776l-66.848-97.92h266.624c27.168 0 49.216 21.92 49.216 48.96s-22.048 48.96-49.216 48.96zM855.104 260.256h-422.72l-66.944-97.92h489.632c27.136 0 49.184 21.984 49.184 48.96 0.032 27.040-22.048 48.96-49.152 48.96zM871.36 439.808h-311.264l-66.848-97.92h378.112c27.2 0 49.216 21.92 49.216 48.928 0.032 27.104-22.016 48.992-49.216 48.992z" horiz-adv-x="960" />
<glyph unicode="&#xe606;" d="M345.344 407.424c77.888 86.208 116.864 160.448 116.864 222.624 0 52.288-22.048 78.464-66.080 78.464-19.648 0-35.552-6.72-47.744-20.128-12.16-13.44-18.304-28.64-18.304-45.6 0-8.48 1.024-16.928 3.040-25.44 2.048-8.48 4.928-16.608 8.672-24.384 3.712-7.776 6.624-14.304 8.64-19.584 2.016-5.312 3.040-9.728 3.040-13.248 0-24.768-17.984-62.208-53.856-112.416l45.728-40.288zM543.488 407.424c77.952 86.208 116.864 160.448 116.864 222.624 0 52.288-22.016 78.464-65.984 78.464-19.68 0-35.616-6.72-47.808-20.128-12.192-13.44-18.304-28.64-18.304-45.6 0-8.48 1.056-16.928 3.072-25.44 1.984-8.48 4.928-16.608 8.672-24.384s6.624-14.304 8.672-19.584c2.016-5.312 3.072-9.728 3.072-13.248 0-24.768-17.952-62.208-53.824-112.416l45.568-40.288zM755.968 825.344v-754.656h-551.936v754.656h551.936zM755.968 905.344h-551.936c-44.192 0-80-35.808-80-80v-754.656c0-44.192 35.808-80 80-80h551.936c44.192 0 80 35.808 80 80v754.656c0 44.16-35.808 80-80 80v0z" horiz-adv-x="960" />
<glyph unicode="&#xe607;" d="M755.968 905.344h-551.936c-44.192 0-80-35.808-80-80v-754.656c0-44.192 35.808-80 80-80h551.936c44.192 0 80 35.808 80 80v754.656c0 44.16-35.808 80-80 80zM755.968 70.688h-551.936v339.296l271.744-0.256-63.040-57.696c-16.288-14.88-17.824-40.672-3.52-57.632 7.776-9.184 18.624-13.888 29.504-13.888 9.184 0 18.464 3.36 25.888 10.24l136.512 124.864c3.968 2.368 7.68 5.376 10.752 9.248 13.792 17.408 11.36 43.168-5.376 57.44l-144.672 123.808c-16.768 14.336-41.504 11.808-55.264-5.6-13.792-17.408-11.36-43.168 5.376-57.472l60.384-51.648-268.256 0.224v333.728h551.936v-754.656z" horiz-adv-x="960" />
<glyph unicode="&#xe608;" d="M583.072 560c0-35.328-28.704-64-64.192-64h-402.656c-35.456 0-64.192 28.672-64.192 64v256c0 35.328 28.736 64 64.192 64h402.656c35.424 0 64.192-28.672 64.192-64v-256zM908 705.184c0-30.656-24.928-55.552-55.616-55.552h-119.264c-30.688 0-55.552 24.896-55.552 55.552v119.264c0 30.656 24.864 55.552 55.552 55.552h119.264c30.688 0 55.616-24.896 55.616-55.552v-119.264zM908 404.512c0-30.752-24.928-55.616-55.552-55.616h-119.328c-30.688 0-55.552 24.864-55.552 55.616v119.232c0 30.688 24.864 55.584 55.552 55.584h119.328c30.624 0 55.552-24.896 55.552-55.584v-119.232zM908 71.552c0-30.688-24.928-55.552-55.552-55.552h-119.328c-30.624 0-55.552 24.864-55.552 55.552v119.264c0 30.656 24.928 55.552 55.552 55.552h119.328c30.624 0 55.552-24.896 55.552-55.552v-119.264zM583.072 80c0-35.328-28.704-64-64.192-64h-402.656c-35.456 0-64.192 28.672-64.192 64v256c0 35.328 28.736 64 64.192 64h402.656c35.424 0 64.192-28.672 64.192-64v-256z" horiz-adv-x="960" />
<glyph unicode="&#xe609;" d="M628.416 143.232c17.856 0 35.2-0.512 52.544 0.128 33.44 1.184 50.592 17.856 51.072 51.136 0.672 51.232 0.192 102.496 0.544 153.792 0.064 10.176 0.736 20.576 2.72 30.528 8.096 40.832 30.496 60.288 74.944 66.016 2.88 0.352 5.728 0.8 8.672 2.944-6.144 0.992-12.32 1.92-18.464 2.976-38.944 6.752-60.544 28.736-65.888 67.616-1.344 9.792-1.952 19.744-1.984 29.6-0.256 50.24 0.256 100.512-0.448 150.72-0.512 34.144-17.376 50.848-51.232 52.032-17.312 0.64-34.656 0.128-52.416 0.128 0 36.32 0 70.624 0 106.112 6.336 0 12.032 0.032 17.76 0 29.024-0.192 58.144 0.8 87.136-0.8 57.92-3.2 94.688-36.192 105.152-93.536 2.688-14.688 3.84-29.824 4-44.768 0.48-49.216 0.192-98.432 0.192-147.648 0-32.672 12.352-51.36 43.552-61.216 17.344-5.472 35.712-7.68 54.592-11.52 0-33.024 0-67.68 0-101.376-16.96-2.976-33.696-4.64-49.568-9.088-22.144-6.272-40.864-17.984-46.88-42.496-1.536-6.208-1.632-12.832-1.696-19.296-0.32-55.712-0.032-111.392-0.896-167.136-0.416-26.592-6.304-52.224-21.28-74.88-19.904-30.080-49.472-43.552-84.224-45.024-34.816-1.536-69.696-0.736-104.576-0.896-0.896 0-1.856 0.576-3.328 1.056 0 34.304 0 68.64 0 104.896zM331.424 142.592c0-35.808 0-69.952 0-103.712-0.96-0.672-1.568-1.344-2.080-1.344-38.24 0.416-76.64-0.896-114.688 1.792-45.824 3.232-80.672 36.288-91.552 83.968-3.584 15.84-5.504 32.416-5.76 48.672-0.704 50.912-0.8 101.888-0.032 152.768 0.448 28.768-12.544 48.288-38.496 57.728-18.656 6.784-38.688 9.76-59.616 14.816 0 31.808 0 66.464 0 101.44 12.32 1.792 25.12 3.136 37.728 5.728 8.256 1.696 16.416 4.608 24.192 8 23.904 10.496 36.384 28.352 36.16 55.232-0.48 52.288-0.352 104.608-0.064 156.896 0.128 23.68 3.168 47.008 12.672 69.056 13.6 31.744 37.28 54.336 71.136 58.528 42.784 5.28 86.272 4.672 130.208 6.656 0-37.28 0-71.616 0-107.968-17.6 0-34.944 0.512-52.256-0.128-34.688-1.248-51.456-18.816-51.616-53.888-0.192-49.216 0.064-98.432-0.128-147.648-0.064-10.56-0.672-21.248-2.432-31.616-7.072-41.664-30.208-62.4-75.136-68.224-2.976-0.384-5.92-0.704-9.088-2.848 6.080-0.992 12.224-1.856 18.272-2.944 40.928-7.488 62.24-30.112 66.656-71.456 1.248-11.872 1.696-23.84 1.76-35.776 0.192-44.448 0.064-88.864 0.096-133.312 0-3.776 0-7.52 0.16-11.296 1.44-29.056 17.856-46.208 46.88-48.096 14.976-0.928 30.016-0.672 45.056-0.96 3.68-0.128 7.36-0.064 11.968-0.064z" horiz-adv-x="960" />
<glyph unicode="&#xe60a;" d="M19.2 1.12h267.040v894.144h-267.040v-894.144zM346.688 0.736h266.24v894.4h-266.24v-894.4zM673.76 895.2v-252.576h267.040v252.576h-267.040zM673.856 1.152h266.912v252.576h-266.912v-252.576zM940.32 574.4h-266.944v-252.96h266.944v252.96z" horiz-adv-x="960" />
<glyph unicode="&#xe60b;" d="M873.344 640h-786.688c-35.328 0-64 28.672-64 64s28.672 64 64 64h786.688c35.328 0 64-28.672 64-64s-28.672-64-64-64zM873.344 384h-786.688c-35.328 0-64 28.672-64 64s28.672 64 64 64h786.688c35.328 0 64-28.672 64-64s-28.672-64-64-64zM464 128h-377.344c-35.328 0-64 28.672-64 64s28.672 64 64 64h377.344c35.328 0 64-28.672 64-64s-28.672-64-64-64z" horiz-adv-x="960" />
<glyph unicode="&#xe60c;" d="M488.256 908.8h-294.752c-40.224 0-72.928-32.704-72.928-72.928v-775.712c0-40.224 32.704-72.96 72.928-72.96h573.024c40.192 0 72.896 32.736 72.896 72.96v464.032l-351.168 384.608zM701.024 548.672h-200.736v213.216l200.736-213.216zM204.032 70.656v754.656h212.768v-296.864c0-34.88 28.352-63.264 63.2-63.264h275.968v-394.528h-551.936z" horiz-adv-x="960" />
<glyph unicode="&#xe60d;" d="M820.992 200.352c-9.152 39.2-17.792 68.864-27.968 96.256-36.128 97.12-73.024 193.92-109.952 290.72l-24.064 63.136c-6.464 16.928-9.024 30.336-8.288 43.36 1.472 26.208 0.864 51.456 0.16 75.104-0.032 1.344-0.096 3.36 3.072 8.928 13.216 23.072 20.704 58.080 2.4 86.624-17.344 27.552-48.992 38.048-72.864 38.688-16.672 0.416-33.312 0.544-49.984 0.544l-53.504-0.16-104.288-0.032c-60.864 0-76.672-43.872-80.064-57.344-7.712-30.496 4.896-58.176 10.592-68.544 2.272-4.128 3.072-6.432 3.040-7.328-0.288-14.24-0.224-28.48-0.16-42.72 0.064-14.944 0.128-29.888-0.288-44.928-0.192-9.216-1.408-12.576-1.536-13.024-19.040-51.072-38.336-102.080-57.6-153.088-21.472-56.736-42.944-113.472-64.064-170.336-16.896-45.472-31.84-86.656-43.584-130.368-19.648-73.152 3.232-127.712 69.952-166.752 23.488-13.76 47.424-24.064 71.072-30.624 62.24-17.344 127.36-26.144 193.6-26.144 53.216 0 108.64 5.696 164.672 16.896 52.288 10.432 92.832 27.424 127.552 53.472 45.568 34.080 64.576 84.256 52.096 137.664zM427.2 624.832c5.952 15.904 9.12 33.792 9.632 54.528 0.448 16.256 0.384 32.512 0.32 48.736-0.064 13.216-0.128 26.464 0.128 39.552 0.064 2.656 0.032 5.28-0.064 7.904l85.856 0.096c-0.16-3.552-0.192-7.168-0.064-10.752 0.672-20.736 1.184-42.784-0.032-63.84-1.76-31.136 3.648-62.624 16.512-96.224l24.032-63.104c20.8-54.528 41.28-109.152 61.952-163.712-1.856-0.064-3.488-0.192-5.472-0.192-53.152 0-53.152 20-106.336 20s-53.184-20-106.4-20c-35.552 0-47.52 8.864-67.328 14.816 9.888 26.176 19.648 52.448 29.568 78.656 19.232 51.2 38.592 102.368 57.696 153.536z" horiz-adv-x="960" />
<glyph unicode="&#xe60e;" d="M479.040 626.688c39.456 0 79.264-11.168 121.664-34.112 60.416-32.704 116.16-78.816 174.272-144.224-5.056-5.824-10.112-11.52-15.232-17.088-50.752-55.328-101.664-96.48-155.712-125.824-44.736-24.32-85.408-36.16-124.288-36.16l-5.472 0.064c-37.536 1.056-76 12.544-117.504 35.040-59.904 32.512-115.488 78.56-173.216 143.712 59.552 67.712 117.792 114.816 182.24 148.352 39.072 20.352 76.128 30.24 113.248 30.24zM479.040 754.688c-57.28 0-114.72-14.72-172.32-44.672-118.048-61.376-207.744-154.816-287.52-262.080 15.072-19.328 28.896-38.016 43.808-55.904 66.496-79.872 140.96-150.336 232.672-200.128 54.72-29.664 112.544-48.704 175.008-50.464 3.040-0.096 6.048-0.128 9.056-0.128 66.208 0 127.392 20.16 185.44 51.712 71.936 39.072 133.664 91.52 188.864 151.712 29.92 32.672 57.44 67.52 86.752 102.208-19.456 24.48-36.704 47.616-55.392 69.472-64.416 75.232-136.384 141.344-223.744 188.672-60.64 32.864-121.536 49.6-182.624 49.6v0zM480.352 564.288c-63.872 0.032-115.136-51.808-115.104-116.384 0.032-64.096 51.296-116.128 114.4-116.192 63.904-0.064 115.072 51.808 115.072 116.448 0.032 64.128-51.168 116.096-114.368 116.128z" horiz-adv-x="960" />
<glyph unicode="&#xe60f;" d="M770.784 908.704c-194.048 0.064-388.096 0.064-582.176 0-106.656-0.032-169.28-62.816-169.344-169.824-0.096-193.184-0.064-386.368 0-579.52 0.032-108.8 61.792-171.232 170.656-171.776 87.936-0.48 175.872-0.16 263.808 0 8.576 0.032 17.152 1.344 24.544 1.952v346.368h-111.392v140.512h115.2c-5.856 82.688-3.36 158.816 61.152 216.928 66.336 59.712 145.536 38.112 220.512 41.184v-139.552c-15.744 0-28.864 0-41.984 0-99.936 0-105.024-5.504-98.4-106.72 0.16-2.784 2.048-5.44 4.672-12.064h136.384v-142.368h-139.136v-346.272c51.968 0 101.408-0.704 150.816 0.16 102.848 1.792 164.64 65.408 164.672 168.896 0.096 194.176 0.128 388.384 0 582.592-0.096 106.272-63.488 169.472-169.984 169.504z" horiz-adv-x="960" />
<glyph unicode="&#xe610;" d="M940.704 400.64c-2.656-23.52-16.672-36.288-40.864-36.544-25.088-0.288-50.304-0.672-75.392 0.16-13.632 0.448-24.256-4.096-33.056-13.472-6.432-6.912-12.832-14.016-18.4-21.568-15.552-21.248-13.92-40.256 4.832-58.912 18.944-18.784 38.112-37.408 57.088-56.224 18.912-18.752 18.848-37.792 0-56.384-20.608-20.224-41.088-40.448-61.664-60.64-18.88-18.56-38.144-18.528-57.28 0.224-18.368 17.888-36.32 36.256-55.072 53.728-5.088 4.704-12.64 9.824-19.040 9.76-17.856-0.16-36.416-0.384-53.312-5.184-18.816-5.44-24.608-22.688-24.736-41.024-0.192-26.432 0.256-52.928-0.256-79.456-0.16-7.424-1.44-15.392-4.608-22.080-5.984-12.768-17.632-19.488-31.584-19.712-31.744-0.64-63.616-1.216-95.36 0.128-23.328 1.056-36.064 16.288-36.384 39.552-0.256 26.080 0.576 52.256-0.48 78.368-0.256 7.712-3.040 17.376-8.256 22.592-11.488 11.616-24.48 22.112-38.304 30.976-13.248 8.544-32.992 3.136-47.232-10.656-19.424-18.848-38.624-38.016-57.952-56.864-19.424-19.072-38.4-18.912-57.984 0.352-20.832 20.48-41.664 40.896-62.368 61.44-17.056 16.832-17.216 36.32-0.192 53.376 18.624 18.624 37.824 36.608 56.064 55.648 4.992 5.216 10.208 13.056 10.208 19.648 0 17.216-0.992 34.912-5.152 51.488-3.776 15.2-17.728 22.592-33.088 23.712-16.576 1.216-33.28 0.32-49.92 0.32 0 0.192 0 0.416 0 0.64-13.824 0-27.648-0.16-41.44 0.064-24.544 0.384-39.808 13.28-40.768 37.504-1.184 30.208-1.184 60.576 0.096 90.784 1.024 24.16 16.288 36.896 41.024 37.184 26.24 0.224 52.48-0.64 78.656 0.448 8.128 0.352 18.080 3.328 23.808 8.64 11.456 10.656 21.6 23.072 30.272 36 9.12 13.632 4.224 33.248-10.048 47.52-19.104 19.072-38.528 37.92-57.76 56.96-19.52 19.296-19.488 37.856 0 57.056 20.576 20.256 41.088 40.48 61.664 60.672 18.336 18.048 37.888 18.048 56.48-0.16 18.368-17.92 36.288-36.288 55.072-53.76 5.12-4.768 12.576-9.952 18.912-9.888 18.144 0.096 37.056 0.224 54.272 5.152 18.24 5.248 24.032 22.336 24.224 40.224 0.32 25.824 0.032 51.616 0.16 77.408 0 4.512 0.16 9.088 0.768 13.536 2.176 14.688 12.8 27.008 27.744 29.408 36.928 6.048 74.080 6.208 110.976 0 17.696-2.944 28.32-17.792 28.576-37.632 0.32-25.088 0.64-50.208-0.096-75.296-0.416-12.928 3.712-23.296 13.024-31.712 7.84-7.008 15.84-13.984 24.512-20 19.744-13.664 39.136-11.968 56.512 4.768 19.744 19.008 39.104 38.464 58.688 57.6 19.008 18.592 38.080 18.432 57.248-0.384 21.056-20.704 42.112-41.376 63.136-62.144 16.448-16.32 16.608-36.16 0.192-52.608-18.656-18.688-37.888-36.736-56.096-55.712-5.024-5.28-10.432-12.96-10.432-19.584 0.032-17.536 0.416-35.776 5.28-52.416 5.376-18.016 22.592-23.872 40.768-24.096 25.152-0.32 50.304-0.064 75.488-0.064 3.136 0 6.304 0.032 9.536-0.064 22.304-0.832 37.216-13.056 38.88-35.008 1.856-25.28 1.472-50.784 1.856-76.192 0.032-5.76-0.8-11.712-1.44-17.6zM480.416 607.744c-84.224 0-152.48-67.648-152.48-151.136 0-83.456 68.256-151.072 152.48-151.072 84.192 0 152.512 67.616 152.512 151.072-0.032 83.488-68.32 151.136-152.512 151.136z" horiz-adv-x="960" />
<glyph unicode="&#xe611;" d="M880.928 803.552c-10.88-11.072-20.896-21.6-31.296-31.776-19.904-19.52-39.968-38.912-59.968-58.272-15.392-14.944-17.76-15.584-41.984-11.648 3.232 7.424 6.208 14.56 9.376 21.664 11.712 26.304 9.12 40.384-12.544 59.264-49.984 43.552-107.008 70.72-174.272 75.488-84.992 6.048-165.184-8.704-238.72-52.608-74.528-44.48-122.368-110.048-148.672-191.872-17.408-54.272-23.648-110.208-21.504-166.976 2.816-74.336 20.8-144.544 62.016-207.488 30.144-46.144 69.28-84 113.248-116.992 43.936-32.96 91.072-59.936 144.448-75.136 52.608-14.944 105.664-13.664 158.432-3.2 26.816 5.312 52.928 14.272 78.912 23.104 24.736 8.448 36.352 27.264 35.84 53.216-0.672 34.56-1.536 69.12-2.464 103.648-0.16 4.32-0.96 8.704-2.048 12.896-6.4 24.736-14.656 31.264-40.416 31.52-19.168 0.224-38.336 0.704-57.472-0.192-19.008-0.864-37.92-3.328-57.984-5.216 14.72 8.992 29.632 16.8 43.104 26.656 21.824 15.904 45.024 21.92 72.384 21.184 65.408-1.728 130.88-0.448 196.352-0.672 5.216-0.032 13.184 3.296 14.336-6.016 0.992-7.84 1.44-14.4-9.792-17.984-18.848-6.016-20.896-23.68-21.088-40.256-0.512-47.712-0.192-95.424-0.224-143.168 0-27.68-0.128-27.36-24.992-39.328-76.448-36.64-156.64-60.896-240.736-71.264-51.488-6.336-103.232-6.656-155.072-1.216-66.816 7.008-131.328 21.952-191.232 52.672-128.096 65.664-206.048 168.832-229.216 311.104-15.808 97.056-9.856 192.576 29.12 284.16 30.56 71.904 78.976 130.080 141.216 177.12 59.328 44.864 126.368 72.128 199.328 84.48 55.232 9.312 110.848 11.008 166.688 3.84 63.072-8.096 125.056-20.544 183.68-45.536 35.52-15.136 69.952-32.832 104.8-49.472 2.4-1.024 4.416-2.912 8.416-5.728z" horiz-adv-x="960" />
<glyph unicode="&#xe612;" d="M760.64 376.736c-12.672 0-25.024-1.536-36.96-4.096l-115.392 203.104c29.184 31.328 47.392 73.056 47.392 119.168 0 96.864-78.784 175.648-175.616 175.648-96.864 0-175.68-78.784-175.68-175.648 0-46.080 18.24-87.776 47.392-119.168l-115.392-203.104c-11.936 2.56-24.256 4.096-36.96 4.096-96.864 0-175.648-78.784-175.648-175.616 0-96.864 78.784-175.68 175.648-175.68 96.832 0 175.648 78.816 175.648 175.68 0 46.080-18.24 87.776-47.424 119.168l115.392 203.104c11.968-2.592 24.288-4.096 36.992-4.096 12.672 0 24.992 1.504 36.96 4.096l115.392-203.104c-29.184-31.328-47.456-73.056-47.456-119.2 0-96.832 78.848-175.616 175.68-175.616s175.616 78.784 175.616 175.616c0.032 96.896-78.752 175.648-175.584 175.648zM199.392 134.144c-36.928 0-66.944 30.016-66.944 66.976 0 36.864 30.016 66.912 66.944 66.912 36.896 0 66.912-30.016 66.912-66.912 0.032-36.928-29.984-66.976-66.912-66.976zM413.056 694.912c0 36.896 30.048 66.944 66.976 66.944 36.896 0 66.912-30.016 66.912-66.944s-30.016-66.912-66.912-66.912c-36.928 0-66.976 29.984-66.976 66.912zM760.64 134.176c-36.896 0-66.976 30.016-66.976 66.912 0 36.864 30.048 66.944 66.976 66.944s66.912-30.048 66.912-66.944c-0.032-36.896-30.016-66.912-66.912-66.912z" horiz-adv-x="960" />
<glyph unicode="&#xe613;" d="M940.736 448.032c0-130.464 0-260.928 0.064-391.36 0-17.28-4.8-32.704-16.192-45.856-13.376-15.264-30.432-23.424-50.56-23.456-262.816-0.16-525.664-0.256-788.544 0.064-36.32 0.032-62.496 28.064-65.568 58.272-0.384 3.744-0.704 7.52-0.704 11.296-0.032 261.024-0.032 522.112-0.032 783.168 0 32.864 19.104 58.24 50.144 66.24 5.632 1.44 11.616 2.304 17.376 2.304 262.112 0.096 524.224 0.096 786.272 0.096 32.384 0 59.424-21.44 66.24-52.8 1.184-5.408 1.44-11.104 1.44-16.64 0.064-130.464 0.064-260.896 0.064-391.328zM805.568 123.328c0 2.432 0 4.224 0 5.984 0 28.416 0.064 56.768-0.064 85.152-0.256 62.016-0.32 124.032-1.056 186.048-0.192 14.496-2.24 29.024-4.512 43.392-3.68 23.264-10.176 45.696-22.304 66.144-15.136 25.6-36.64 43.392-64.672 53.408-25.056 8.928-50.944 11.616-77.44 10.944-14.048-0.384-27.744-2.368-41.248-6.336-33.952-9.92-60.992-29.152-80.32-59.008-1.12-1.824-2.176-3.648-3.264-5.472-0.384 0.096-0.8 0.224-1.184 0.352-0.064 1.568-0.192 3.136-0.192 4.704-0.064 16.448 0 32.896-0.064 49.376 0 6.016-0.064 6.144-5.952 6.144-40 0-80 0-120.032 0-5.696 0-5.888-0.192-5.888-5.888 0-143.136 0.032-286.24-0.096-429.376 0-4.704 1.472-5.728 5.92-5.728 41.696 0.192 83.328 0.096 124.992 0.096 6.496 0 6.496 0 6.56 6.656 0.256 77.248 0.448 154.528 0.864 231.776 0.064 15.392 2.944 30.464 8.192 44.992 7.744 21.536 21.824 36.832 44.256 43.296 12.992 3.68 26.176 4.736 39.68 3.264 23.264-2.592 39.936-14.016 49.376-35.488 7.328-16.512 9.824-34.144 9.888-51.872 0.384-78.816 0.256-157.632 0.32-236.448 0-6.112 0-6.144 6.176-6.144 42.048 0 84.256 0 126.304 0 1.696 0.032 3.328 0.032 5.76 0.032zM155.296 123.328c2.176 0 3.808 0 5.44 0 42.080 0 84.256 0.096 126.336-0.096 4.864-0.032 5.664 1.696 5.664 5.984-0.096 142.848-0.096 285.664-0.096 428.48 0 6.496 0 6.528-6.56 6.528-41.376 0-82.752 0-124.096 0-6.688 0-6.688 0-6.688-6.592 0-142.656 0-285.344 0-428 0-1.856 0-3.648 0-6.304zM144.448 703.136c-0.352-44.192 34.528-80.416 79.552-80.16 45.536 0.224 79.904 34.848 80.16 79.84 0.256 44.544-35.904 79.712-80.064 79.968-43.52 0.288-80.32-36.384-79.648-79.648z" horiz-adv-x="960" />
<glyph unicode="&#xe614;" d="M130.464 786.24c-47.136-3.456-82.080-41.824-78.656-86.432 3.584-47.008 42.048-81.504 87.008-78.048 46.656 3.584 81.984 41.6 79.040 84.96-3.264 47.456-42.144 82.848-87.392 79.52zM345.76 640h498.688c35.36 0 64 28.672 64 64s-28.64 64-64 64h-498.688c-35.328 0-64-28.672-64-64s28.64-64 64-64zM844.448 512h-498.688c-35.328 0-64-28.672-64-64s28.672-64 64-64h498.688c35.36 0 64 28.672 64 64s-28.64 64-64 64zM844.448 255.968h-498.688c-35.328 0-64-28.64-64-64 0-35.328 28.672-64 64-64h498.688c35.36 0 64 28.672 64 64 0 35.36-28.64 64-64 64zM130.464 530.24c-47.136-3.456-82.080-41.824-78.656-86.432 3.584-47.008 42.048-81.504 87.008-78.048 46.656 3.584 81.984 41.6 79.040 84.96-3.264 47.456-42.144 82.848-87.392 79.52zM130.464 274.272c-47.136-3.456-82.080-41.856-78.656-86.432 3.584-47.040 42.048-81.536 87.008-78.048 46.656 3.584 81.984 41.6 79.040 84.928-3.264 47.488-42.144 82.88-87.392 79.552z" horiz-adv-x="960" />
<glyph unicode="&#xe615;" d="M785.504 627.872c-11.552 153.6-134.688 271.328-293.344 280.448-147.808 8.512-284.96-99.2-313.088-245.504-15.2-79.104-0.992-155.168 24.32-229.632 55.36-162.944 149.888-303.008 258.080-434.656 12.992-15.84 24.704-14.976 38.592 2.016 86.112 105.76 162.176 218.048 219.552 342.176 38.048 82.304 66.24 167.488 67.552 262.752-0.352 5.312-1.056 13.856-1.664 22.4zM478.464 448.64c-73.536 0.928-132.16 61.312-131.68 135.68 0.416 72.896 59.232 131.744 132.608 132.672 73.792 0.928 134.24-60.32 133.888-135.68-0.416-73.536-61.408-133.6-134.816-132.672z" horiz-adv-x="960" />
<glyph unicode="&#xe616;" d="M866.4 512h-772.8c-35.328 0-64-28.672-64-64 0-35.36 28.672-64 64-64h772.8c35.328 0 64 28.64 64 64 0 35.328-28.576 64-64 64z" horiz-adv-x="960" />
<glyph unicode="&#xe617;" d="M619.040 758.272h77.184l-254.112-265.184c-24.448-25.504-23.584-66.016 1.92-90.464 12.416-11.904 28.352-17.824 44.256-17.824 16.832 0 33.664 6.624 46.208 19.712l247.68 258.464v-56.672c0-35.328 28.672-64 64-64s64 28.672 64 64v215.968c0 0.224-0.064 0.416-0.064 0.64-0.032 2.784-0.448 5.536-0.832 8.32-0.192 1.408-0.224 2.912-0.512 4.288-0.512 2.368-1.408 4.672-2.144 7.008-0.576 1.632-0.896 3.328-1.568 4.864-0.736 1.76-1.856 3.36-2.784 5.088-1.024 1.952-1.984 3.968-3.232 5.824-0.832 1.248-1.984 2.336-2.912 3.52-1.696 2.112-3.328 4.288-5.248 6.144-0.16 0.16-0.288 0.352-0.448 0.512-1.088 1.056-2.336 1.792-3.488 2.752-1.92 1.6-3.776 3.232-5.888 4.608-1.76 1.12-3.584 1.984-5.408 2.944-1.856 0.96-3.648 2.016-5.632 2.816-2.048 0.832-4.192 1.344-6.304 1.984-1.888 0.544-3.712 1.184-5.664 1.536-2.496 0.48-5.024 0.608-7.584 0.768-1.44 0.096-2.848 0.448-4.32 0.448h-227.168c-35.328 0-64-28.672-64-64s28.704-64.064 64.064-64.064zM862.944 448.992c-34.848 6.016-67.904-17.632-73.76-52.48-24.448-144.544-148.544-253.28-295.072-258.592-171.104-7.104-316 128.16-322.208 299.616-5.536 152.608 98.816 285.536 248.128 316.064 34.624 7.104 56.96 40.896 49.888 75.52-7.104 34.624-40.928 56.992-75.52 49.888-210.848-43.136-358.24-230.72-350.4-446.080 8.576-236.608 203.744-423.264 438.656-423.232 5.344 0 10.72 0.096 16.096 0.288 206.944 7.52 382.144 161.12 416.64 365.216 5.888 34.848-17.6 67.904-52.448 73.792z" horiz-adv-x="960" />
<glyph unicode="&#xe618;" d="M900.48 886.24c-16.64 16.064-35.232 23.712-57.472 15.648-9.696-3.52-19.68-7.808-27.52-14.336-28.448-23.904-57.536-47.296-83.648-73.824-102.624-104.384-198.976-214.848-290.496-329.76-35.648-44.832-69.952-90.784-97.728-141.536-10.912-19.872-21.024-40.32-23.392-63.552-2.752-27.488 15.328-48.864 41.696-50.048 5.344 0.8 11.264 0.608 16.032 2.912 14.752 7.168 30.016 13.824 43.36 23.296 42.784 30.304 80.736 66.784 116.32 105.312 79.104 85.472 157.376 171.808 234.752 258.848 42.752 48.032 83.936 97.664 118.784 152.224 11.296 17.568 20.384 37.056 27.328 56.832 7.936 22.752-1.472 41.856-18.016 57.984zM287.616 237.28c-39.904 11.328-74.88 2.592-100.608-31.52-14.56-19.328-26.72-40.992-37.568-62.88-17.472-35.36-41.856-61.92-79.168-74.432-6.368-2.112-12.992-3.264-19.232-5.664-13.6-5.216-16.544-15.488-6.24-25.792 7.968-7.904 17.44-14.752 27.328-19.904 35.36-18.624 73.472-25.632 112.8-26.112 4.256 0 8.576-0.224 12.736 0 6.080 0.416 12.192 0.832 18.24 1.664 56.288 7.52 102.336 33.088 133.856 82.624 22.624 35.52 27.456 73.12 7.52 112.032-14.848 28.928-40.832 41.728-69.664 49.984z" horiz-adv-x="960" />
<glyph unicode="&#xe619;" d="M755.968 825.344v-754.656h-551.936v754.656h551.936zM755.968 905.344h-551.936c-44.192 0-80-35.808-80-80v-754.656c0-44.192 35.808-80 80-80h551.936c44.192 0 80 35.808 80 80v754.656c0 44.16-35.808 80-80 80v0zM650.016 425.056c-28.384 1.12-56.8-2.496-85.248-3.2-6.752-0.128-16.064 1.376-19.872 5.952-20.8 24.96-40.672 50.816-59.872 77.184-3.328 4.672-3.104 13.408-1.984 19.84 3.712 23.552 8.576 46.976 13.024 70.4-0.576 0.128-1.056 0.288-1.632 0.416-0.384 7.2-0.384 14.432-1.376 21.504-4.256 30.656-18.752 44.576-43.872 42.464-22.88-1.92-39.008-20-35.072-48.544 4.064-29.728 15.328-58.368 22.368-87.744 2.336-9.76 4.384-21.216 1.568-30.176-8.928-27.872-20.928-54.624-30.496-82.24-11.296-32.448-29.984-55.008-62.080-69.696-23.68-10.816-45.024-29.92-63.488-49.184-17.504-18.304-8.32-44.064 15.52-52.896 18.112-6.784 34.912-1.152 46.688 12.096 19.968 22.368 37.152 47.36 56.192 70.688 6.048 7.36 13.312 15.616 21.76 18.816 35.52 13.472 71.488 25.984 107.84 37.056 8.032 2.432 19.584-0.128 27.040-4.64 28.544-17.184 57.984-27.936 91.584-23.68 25.344 3.264 38.432 15.872 38.56 37.792 0.064 19.936-14.016 36.8-37.152 37.792zM452.928 624.64c11.136-16.192 5.984-34.048 3.296-51.616-7.168 16.704-14.752 33.536-3.296 51.616zM432.864 383.168c11.872 30.016 22.496 56.672 33.632 84.768 16-20.192 30.496-38.688 46.080-58.432-26.4-8.704-51.456-16.992-79.712-26.336zM599.264 394.176c20.288-0.992 36.16-1.76 56.544-2.752-17.536-11.968-37.088-10.72-56.544 2.752z" horiz-adv-x="960" />
<glyph unicode="&#xe61a;" d="M866.4 512h-322.432v322.432c0 35.36-28.64 64-63.968 64s-64-28.64-64-64v-322.432h-322.4c-35.328 0-64-28.672-64-64 0-35.36 28.672-64 64-64h322.4v-322.432c0-35.328 28.672-64 64-64s63.968 28.672 63.968 64v322.432h322.432c35.36 0 64 28.64 64 64 0 35.328-28.608 64-64 64z" horiz-adv-x="960" />
<glyph unicode="&#xe61b;" d="M271.936 592h448.128l-224.064-288.128-224.064 288.128z" horiz-adv-x="960" />
<glyph unicode="&#xe61c;" d="M624.064 672.064v-448.128l-288.128 224.064 288.128 224.064z" horiz-adv-x="960" />
<glyph unicode="&#xe61d;" d="M351.936 223.872v448.128l288.128-224.064-288.128-224.064z" horiz-adv-x="960" />
<glyph unicode="&#xe61e;" d="M720.064 303.936h-448.128l224.064 288.128 224.064-288.128z" horiz-adv-x="960" />
<glyph unicode="&#xe61f;" d="M480.416-12.768c-97.568 0-195.2 0-292.768 0-42.688 0.032-60 16.544-60 57.408 0 190.112 0 380.288 0 570.4 0 38.304 16 53.888 55.648 53.952 57.568 0.064 115.168-0.192 172.704 0.16 10.656 0.032 21.696 0.928 31.904 3.776 30.912 8.608 44.096 36.448 30.912 64.832-3.808 8.192-9.664 15.616-15.36 22.848-26.688 33.92-30.368 73.728-9.376 105.856 20.224 30.944 65.632 48.384 105.248 40.416 75.84-15.296 103.296-87.456 55.872-146.944-4.096-5.152-8.448-10.24-11.776-15.872-19.648-33.312-1.664-68.576 37.664-73.728 8-1.024 16.128-1.28 24.192-1.312 58.016-0.096 116.032 0.032 174.048-0.096 36.8-0.064 52.896-15.424 52.96-50.688 0.128-59.168 0.096-118.368-0.064-177.504 0-6.496-0.512-13.088-1.856-19.424-3.616-17.184-16.672-22.592-32.096-13.504-4.16 2.496-7.968 5.632-11.776 8.704-34.464 28.16-73.216 39.328-116.352 22.752-43.424-16.608-63.84-51.104-67.488-94.336-1.568-19.104 0.192-39.52 5.632-57.92 21.76-72.928 104.864-97.152 167.168-49.984 6.72 5.12 13.056 10.88 20.448 14.88 16.384 8.832 29.536 3.328 33.92-14.144 1.92-7.488 2.4-15.456 2.432-23.264 0.192-57.44 0.16-114.88 0.096-172.288-0.064-38.592-16.96-55.040-56.416-55.040-98.528 0.064-197.024 0.064-295.52 0.064z" horiz-adv-x="960" />
<glyph unicode="&#xe620;" d="M600.512 269.024v610.784c0 16-13.12 28.992-29.376 28.992h-417.056c-16.192 0-29.344-12.992-29.344-28.992v-610.784c0-16 13.152-28.992 29.344-28.992h417.024c16.256 0 29.408 12.992 29.408 28.992zM717.856 144.8v619.072c0 16-13.12 28.96-29.312 28.96h-29.376v-592.352c0-16.8-11.168-26.752-29.344-26.752h-387.68v-28.928c0-16 13.12-28.992 29.344-28.992h417.024c16.192 0 29.344 12.992 29.344 28.992zM805.888 684.128h-29.312v-614.624c0-16-10.464-24.32-26.688-24.32h-390.336v-28.992c0-16 13.12-28.992 29.312-28.992h416.992c16.256 0 29.376 12.992 29.376 28.992v638.976c0.032 16-13.12 28.96-29.344 28.96z" horiz-adv-x="960" />
<glyph unicode="&#xe621;" d="M758.88 539.808c-0.192-58.912-12.96-114.88-40.16-167.264-4.032-7.776-3.072-12.032 2.976-18.048 61.312-60.768 122.144-122.016 183.36-182.912 23.648-23.456 37.856-50.976 35.488-84.832-2.976-42.912-24.576-74.176-64.288-90.72-38.88-16.16-76.064-10.048-107.936 17.6-20.8 18.016-39.616 38.528-59.2 57.984-45.408 45.312-90.88 90.624-135.936 136.224-5.632 5.632-9.632 6.048-16.512 2.4-141.824-75.168-326.176-43.552-436.032 74.528-71.392 76.704-104.864 167.808-101.216 272.288 5.984 169.92 136.8 318.4 304.352 346.272 180.704 30.080 348.16-66.176 412.96-237.344 14.016-37.024 22.112-82.88 22.144-126.176zM388.512 274.176c146.976-0.256 265.376 117.856 265.888 265.024 0.48 144.256-118.176 264.256-260.352 265.792-147.648 1.632-268.736-114.784-270.112-260.736-1.472-150.944 116.032-269.824 264.576-270.080z" horiz-adv-x="960" />
<glyph unicode="&#xe622;" d="M480.128 211.008c-25.44-19.488-50.624-38.848-75.872-58.176-32.704-25.056-65.408-50.112-98.112-75.232-12.352-9.472-25.728-15.808-41.792-12.896-30.304 5.472-46.304 34.432-36.896 63.84 23.712 74.016 46.72 148.32 70.208 223.104-6.56 5.056-13.024 10.080-19.52 15.072-53.632 41.248-107.296 82.432-160.832 123.776-28.704 22.176-28.448 61.824 1.184 79.52 8.064 4.8 18.688 7.36 28.192 7.456 67.936 0.64 135.904 0.48 203.84 0.16 7.712-0.032 11.168 1.824 13.696 9.6 22.88 69.888 46.304 139.584 69.664 209.312 7.392 22.176 24.192 35.36 44.8 35.488 22.016 0.16 39.328-12.352 47.040-35.136 17.472-51.616 34.496-103.392 51.712-155.168 6.176-18.56 12.864-37.024 18.4-55.808 2.048-6.944 5.376-8.32 11.968-8.288 68.544 0.224 137.056 0.224 205.568 0.096 27.936-0.032 49.408-19.264 50.56-45.056 0.736-16.768-5.888-30.4-19.168-40.704-54.848-42.432-109.664-84.928-164.544-127.328-17.76-13.76-17.792-13.696-11.104-35.104 20.288-64.992 40.832-129.952 60.608-195.136 3.2-10.528 5.44-22.752 3.328-33.248-6.88-34.624-47.648-48.288-75.712-26.592-56.672 43.776-113.376 87.488-170.048 131.232-2.24 1.696-4.544 3.296-7.168 5.216z" horiz-adv-x="960" />
<glyph unicode="&#xe623;" d="M130.464 786.24c-47.136-3.456-82.080-41.824-78.656-86.432 3.584-47.008 42.048-81.504 87.008-78.048 46.656 3.584 81.984 41.6 79.040 84.96-3.264 47.456-42.144 82.848-87.392 79.52zM345.76 640h498.688c35.36 0 64 28.672 64 64s-28.64 64-64 64h-498.688c-35.328 0-64-28.672-64-64s28.64-64 64-64zM733.344 512h-387.584c-35.328 0-64-28.672-64-64s28.672-64 64-64h387.584c35.36 0 64 28.672 64 64s-28.64 64-64 64zM621.344 255.968h-275.584c-35.328 0-64-28.64-64-64 0-35.328 28.672-64 64-64h275.584c35.36 0 64 28.672 64 64 0 35.36-28.64 64-64 64zM130.464 530.24c-47.136-3.456-82.080-41.824-78.656-86.432 3.584-47.008 42.048-81.504 87.008-78.048 46.656 3.584 81.984 41.6 79.040 84.96-3.264 47.456-42.144 82.848-87.392 79.52zM130.464 274.272c-47.136-3.456-82.080-41.856-78.656-86.432 3.584-47.040 42.048-81.536 87.008-78.048 46.656 3.584 81.984 41.6 79.040 84.928-3.264 47.488-42.144 82.88-87.392 79.552z" horiz-adv-x="960" />
<glyph unicode="&#xe624;" d="M494.976 910.464c160.768-4.928 301.184-103.328 359.776-253.696 12.64-32.352 20.544-65.92 24.096-100.48 0.416-4 1.792-8.064 3.456-11.712 28.128-60.64 40.512-124.416 35.744-190.912-7.296-101.632-47.232-188.768-121.088-259.328-61.984-59.232-135.936-94.912-221.024-105.44-112.224-13.888-212.704 15.68-300.608 86.624-16.608 13.376-33.632 25.696-51.52 37.216-91.872 59.328-151.424 142.4-173.568 249.504-27.008 130.72 5.248 246.976 93.216 347.712 7.264 8.352 12.704 18.336 19.136 27.488 65.088 92.8 153.696 148.576 265.44 166.944 22.048 3.616 44.608 4.128 66.944 6.080zM576.192 185.216c0.992 17.696 1.888 34.56 2.944 51.424 1.984 31.68-22.016 55.52-53.568 53.248-23.040-1.696-42.336 5.568-56.736 24.224-4.32 5.632-8.192 11.648-13.056 16.768-10.016 10.56-19.648 21.888-31.136 30.656-20.224 15.424-44.288 16.512-68.8 15.104-19.328-1.12-38.976-2.432-58.112-0.448-21.6 2.208-39.776 13.408-49.792 33.472-12.064 24.192-7.488 47.584 7.584 69.248 3.008 4.288 6.752 8.064 10.208 12 3.616 4.16 7.328 8.224 11.008 12.288 16.352 17.984 18.24 37.76 7.040 58.88-7.168 13.536-15.104 26.656-22.176 40.256-5.6 10.72-9.024 22.112-6.24 34.4 6.112 26.848 31.872 43.52 60.256 37.984 18.592-3.648 36.8-9.12 55.232-13.632 24.064-5.856 44.864 0.416 62.272 17.76 6.304 6.304 11.968 13.248 17.632 20.16 12.32 15.040 25.92 28.224 44.192 36.064 41.344 17.728 85.28-4.32 96.288-43.040 2.176-7.616 5.344-15.232 9.408-21.984 2.656-4.416 7.328-8.32 11.936-10.72 19.232-9.984 39.072-18.848 58.144-29.056 34.208-18.304 55.136-46.144 55.136-86.016 0-15.488-4.16-31.136-7.36-46.496-4.928-23.488 1.056-34.912 23.712-42.528 6.72-2.272 13.504-4.352 20.224-6.592 9.536-3.264 15.328-9.92 19.104-19.264 6.624-16.672 7.648-33.12 1.312-50.112-4.032-10.72-4.672-21.6 1.824-32.192 67.456 113.6 66.688 283.808-50.944 406.24-118.944 123.808-308.96 139.904-448.544 38.592-132.768-96.384-181.248-279.68-101.888-433.184 79.456-153.792 251.584-213.536 392.896-173.504zM137.44 613.984c-66.88-111.616-65.92-276 41.472-396.928 108.544-122.176 273.344-137.536 384.096-88.928 0 10.528 0 21.12 0 31.68-131.872-22.368-247.936 9.632-340 108.32-91.872 98.496-117.152 216.096-85.568 345.856zM641.376 56.896c4.384 1.504 6.848 2.048 9.024 3.136 17.44 8.544 35.456 16.096 52.128 25.984 48.192 28.48 86.432 67.328 115.392 115.232 1.312 2.144 2.24 5.92 1.248 7.808-14.368 27.52-38.080 45.472-63.808 62.016-2.816-3.36-5.728-6.080-7.648-9.376-26.656-45.28-61.6-82.88-104.224-113.472-1.696-1.184-3.616-3.328-3.776-5.184-1.6-17.76-3.744-35.488-3.808-53.28 0-10.688 3.424-21.344 5.472-32.864zM457.184 449.6c24.96 3.328 51.040 6.816 77.12 10.304 2.496 0.32 4.992 0.704 7.424 1.312 13.856 3.392 23.584 16.448 21.888 30.784-3.328 27.264-7.040 54.464-11.072 81.632-2.24 15.136-16.512 26.144-30.944 24.32-26.784-3.36-53.536-6.944-80.256-10.816-17.28-2.464-27.84-15.744-25.792-32.896 3.264-26.816 6.976-53.568 10.944-80.256 2.176-14.688 14.912-24.768 30.688-24.384zM335.584 94.944c41.248-28.512 86.784-46.112 136-54.112 44.192-7.168 88.16-5.44 132 4.8-10.112 24.544-6.304 49.536-6.4 74.816-84.448-40.928-171.424-49.152-261.6-25.504zM623.136 201.408c44.896 17.728 96.928 56.608 127.328 95.104 1.216 1.568 2.208 4.192 1.792 5.952-2.88 11.264-7.808 21.536-16.416 29.568-11.648 10.88-26.4 12.992-41.696 3.072-19.904-12.864-38.752-27.456-57.44-42.080-4.288-3.36-7.392-9.536-8.8-14.976-3.264-12.576-5.696-25.408-7.328-38.272-1.632-12.704-1.952-25.568 2.56-38.368zM849.92 484.704c-3.872-32.608-10.944-64.352-22.24-95.104-11.424-31.072-26.944-60.032-46.464-87.264 22.848-15.776 44.992-31.808 59.392-57.28 32.352 79.776 35.744 159.136 9.312 239.648zM680.416 206.784c-2.176-0.352-2.88-0.32-3.392-0.576-21.536-10.4-43.072-20.8-64.512-31.36-1.6-0.768-3.616-2.656-3.712-4.128-0.416-6.464-0.192-12.992-0.192-20.672 26.88 15.872 50.080 34.144 71.808 56.736z" horiz-adv-x="960" />
<glyph unicode="&#xe625;" d="M553.184 452.448c0 58.848-46.752 106.592-104.32 106.592-57.696 0-104.352-47.744-104.352-106.592 0-58.88 46.656-106.56 104.352-106.56 57.568 0 104.32 47.68 104.32 106.56zM123.456 559.040c-57.632 0-104.256-47.744-104.256-106.592 0-58.88 46.624-106.56 104.256-106.56s104.32 47.68 104.32 106.56c0.032 58.848-46.656 106.592-104.32 106.592zM921.248 495.2l-327.2 327.168c-26.112 26.080-68.384 26.080-94.432 0-26.080-26.048-26.080-68.352 0-94.4l280-279.968-280-279.968c-26.080-26.048-26.080-68.32 0-94.4 13.056-13.024 30.112-19.552 47.264-19.552 17.056 0 34.112 6.528 47.2 19.552l327.2 327.168c26.048 26.080 26.048 68.32-0.032 94.4z" horiz-adv-x="960" />
<glyph unicode="&#xe626;" d="M480.096-26.72c49.376-0.192 86.496 22.816 113.408 65.984h-225.76c26.944-42.624 63.456-65.792 112.352-65.984zM593.536 159.552c-5.344 0.032-10.752 0.032-16.096 0.032-69.856 0-139.712 0-209.536-0.064-18.528 0-29.824-8.704-31.968-24.256-2.496-17.984 10.080-31.328 30.752-31.52 38.016-0.352 76.032-0.128 114.048-0.128 37.632 0 75.232-0.16 112.832 0.064 19.936 0.128 32.544 11.328 32.48 28-0.032 16.608-12.928 27.68-32.512 27.872zM811.232 678.592c-20.704 115.776-121.792 208.672-255.328 236.448-24.672 5.216-49.856 7.68-74.976 7.68-104.768 0-208.128-43.424-269.76-119.040-82.88-101.6-85.6-210.496-28.32-321.248 17.632-34.048 44.352-64.768 68.704-96 35.84-45.888 60.992-62.4 61.568-119.104 0.256-26.24 20.512-42.432 50.816-42.496 16.672-0.032 33.376-0.064 50.048-0.064 22.208 0 44.416 0.032 66.624 0.032 22.24 0 44.448-0.032 66.656-0.032 16.672 0 33.376 0.032 50.016 0.064 30.912 0.064 50.56 16.256 51.168 43.36 0.928 47.328 17.28 58.464 46.816 97.952 17.312 23.232 35.584 45.984 53.44 68.864 57.216 74.080 78.176 155.52 62.528 243.584z" horiz-adv-x="960" />
<glyph unicode="&#xe627;" d="M152.704 578.656c219.104 0 436.096 0 654.4 0-2.144-20.608-4.16-40.288-6.304-59.936-10.304-93.152-20.672-186.272-31.072-279.392-6.656-60.096-12.896-120.224-20.096-180.224-5.088-42.56-34.080-68.992-77.056-69.184-128.704-0.512-257.44-0.512-386.112 0-42.080 0.192-71.168 26.72-76.128 68.8-8.192 68.512-15.264 137.088-22.848 205.664-9.344 84.256-18.784 168.512-28.16 252.736-2.24 20.128-4.32 40.256-6.624 61.536zM87.136 644.928c1.248 36.096 5.12 70.496 22.304 101.952 10.592 19.36 26.304 29.248 49.536 28.576 36.896-1.12 73.824 0 110.784-0.512 9.856-0.16 14.848 2.336 18.336 12.352 12.928 36.672 27.296 72.832 40.608 109.376 2.592 7.168 5.888 9.856 13.76 9.824 91.712-0.288 183.424-0.288 275.2 0 7.968 0.032 11.104-2.816 13.696-9.952 13.44-36.896 27.648-73.568 41.056-110.496 2.88-8.064 6.528-11.264 15.52-11.136 38.112 0.576 76.32-0.416 114.432 0.512 21.696 0.544 36.704-8.832 47.008-26.592 18.4-31.872 21.92-67.2 23.52-103.872-262.112-0.032-522.88-0.032-785.76-0.032zM349.664 776.32c88.096 0 173.696 0 260.896 0-10.592 21.088-20.192 40.672-30.368 59.968-1.248 2.368-5.696 4.256-8.672 4.288-60.832 0.256-121.664 0.256-182.496 0-3.040 0-7.616-1.728-8.864-4.032-10.368-19.584-20.096-39.456-30.496-60.224z" horiz-adv-x="960" />
<glyph unicode="&#xe628;" d="M915.424 806.208c-15.2-43.744-41.568-75.904-77.44-102.496 11.2 2.016 22.432 3.68 33.504 6.176 11.136 2.528 22.176 5.6 33.056 9.024 11.264 3.52 22.24 7.808 36.256 12.8-7.2-9.728-12.064-18.24-18.752-25.024-21.184-21.568-42.624-42.944-64.928-63.392-6.752-6.208-10.24-11.136-10.048-20.928 1.984-106.528-25.888-205.344-81.952-295.808-79.488-128.128-193.056-209.984-342.272-239.616-137.216-27.264-267.488-7.008-388.992 63.424-4.192 2.432-8.192 5.184-14.656 9.344 104.128-9.728 195.232 15.456 278.656 77.568-87.040 7.808-144.672 50.4-176.736 130.72 28.672-3.52 55.36-4.672 83.328 3.904-111.584 28.736-152.64 124.608-148.192 185.76 25.696-12.64 52.16-21.184 83.776-22.080-41.248 30.304-67.904 67.328-78.496 114.72-10.624 47.392-3.744 92.256 20.416 135.808 102.592-119.68 231.712-185.376 389.536-196.32-1.12 13.728-2.88 26.24-3.104 38.816-1.888 102.304 75.296 185.632 178.112 191.744 53.312 3.168 100.128-13.6 139.328-49.664 7.872-7.2 14.496-8.864 24.512-6.24 34.112 8.8 66.752 20.992 97.504 38.048 1.792 0.992 3.712 1.824 7.584 3.712z" horiz-adv-x="960" />
<glyph unicode="&#xe629;" d="M707.968 766.496l-228-228-227.968 227.968c-25.024 25.024-65.504 25.024-90.496 0.032s-25.024-65.504 0-90.528l227.968-227.968-227.968-227.968c-24.992-24.992-24.992-65.536 0-90.528 25.024-24.992 65.504-24.96 90.496 0l228 228 228-228c24.96-24.96 65.504-24.992 90.496 0 24.992 24.96 24.928 65.504-0.032 90.464l-228 228 228 228c25.024 25.024 25.024 65.504 0 90.528-24.96 24.96-65.472 24.992-90.496 0z" horiz-adv-x="960" />
</font>
</defs>
</svg>
