<?xml version="1.0" encoding="utf-8"?>
<!-- Generator: Adobe Illustrator 16.0.4, SVG Export Plug-In . SVG Version: 6.00 Build 0)  -->
<!DOCTYPE svg PUBLIC "-//W3C//DTD SVG 1.1//EN" "http://www.w3.org/Graphics/SVG/1.1/DTD/svg11.dtd">
<svg version="1.1" id="Layer_1" xmlns="http://www.w3.org/2000/svg" xmlns:xlink="http://www.w3.org/1999/xlink" x="0px" y="0px"
	 width="610.031px" height="103.017px" viewBox="0 0 610.031 103.017" style="enable-background:new 0 0 610.031 103.017;"
	 xml:space="preserve">
<style type="text/css">
<![CDATA[
	.st0{fill:url(#SVGID_2_);}
	.st1{fill-rule:evenodd;clip-rule:evenodd;fill:#FFE266;}
	.st2{fill:#3D3D3D;}
	.st3{fill-rule:evenodd;clip-rule:evenodd;fill:#3181AF;}
	.st4{fill-rule:evenodd;clip-rule:evenodd;fill:url(#SVGID_1_);}
]]>
</style>
<path class="st1" d="M87.446,21.648c-0.799,0-1.599-0.014-2.397,0.011c-0.176,0.005-0.42,0.109-0.5,0.246
	c-0.061,0.104,0.048,0.363,0.153,0.497c0.63,0.803,1.292,1.581,1.917,2.388c0.116,0.149,0.21,0.452,0.136,0.574
	c-0.08,0.13-0.379,0.194-0.571,0.174c-1.088-0.113-2.172-0.263-3.259-0.395c-0.607-0.074-0.776,0.146-0.548,0.71
	c0.447,1.11,0.899,2.218,1.35,3.327c0.091,0.222,0.218,0.489-0.049,0.626c-0.152,0.078-0.431,0.04-0.594-0.052
	c-1.161-0.65-2.303-1.333-3.458-1.993c-0.39-0.223-0.519-0.505-0.409-0.956c0.3-1.227,0.997-2.204,1.892-3.046
	c1.402-1.316,2.213-2.922,2.534-4.811c0.756-4.46-2.55-8.847-6.994-9.385c-4.701-0.57-9.365,3.225-9.048,8.599
	c0.127,2.158,0.942,4.007,2.516,5.509c0.923,0.881,1.675,1.867,1.979,3.142c0.1,0.42,0.003,0.711-0.378,0.931
	c-1.167,0.669-2.322,1.359-3.496,2.017c-0.161,0.09-0.398,0.042-0.601,0.058c-0.013-0.203-0.095-0.431-0.029-0.604
	c0.422-1.104,0.877-2.194,1.32-3.29c0.261-0.648,0.097-0.86-0.586-0.774c-1.071,0.136-2.141,0.279-3.215,0.388
	c-0.188,0.02-0.491-0.061-0.56-0.19c-0.069-0.13,0.038-0.42,0.155-0.572c0.607-0.783,1.252-1.537,1.861-2.318
	c0.12-0.154,0.239-0.433,0.176-0.57c-0.062-0.135-0.355-0.227-0.548-0.229c-1.539-0.013-3.078-0.001-4.617,0.005
	c-0.255,0.001-0.583,0.026-0.591-0.296c-0.005-0.179,0.213-0.435,0.398-0.537c1.243-0.684,2.508-1.326,3.753-2.007
	c0.177-0.097,0.282-0.329,0.42-0.498c-0.179-0.127-0.342-0.323-0.54-0.373c-1.52-0.377-3.048-0.716-4.567-1.097
	c-0.186-0.046-0.328-0.266-0.49-0.405c0.162-0.139,0.305-0.36,0.489-0.402c1.698-0.395,3.405-0.752,5.105-1.142
	c0.188-0.043,0.345-0.224,0.517-0.34c-0.119-0.169-0.201-0.393-0.361-0.5c-1.319-0.874-2.653-1.726-3.982-2.584
	c-0.062-0.04-0.151-0.064-0.183-0.121c-0.091-0.166-0.158-0.344-0.235-0.517c0.173-0.076,0.357-0.234,0.517-0.212
	c1.084,0.145,2.163,0.328,3.244,0.5c0.467,0.074,0.932,0.172,1.402,0.212c0.177,0.015,0.43-0.053,0.528-0.178
	c0.073-0.093,0.003-0.369-0.087-0.51c-0.944-1.484-1.906-2.958-2.863-4.435c-0.04-0.062-0.108-0.12-0.117-0.186
	c-0.026-0.199-0.029-0.401-0.041-0.602c0.201,0.002,0.445-0.07,0.597,0.018c1.177,0.683,2.335,1.396,3.5,2.099
	c0.493,0.298,0.978,0.614,1.485,0.886c0.156,0.084,0.44,0.132,0.549,0.047c0.113-0.088,0.147-0.372,0.106-0.545
	c-0.451-1.943-0.92-3.881-1.393-5.819c-0.063-0.261-0.12-0.512,0.176-0.652c0.315-0.149,0.455,0.109,0.598,0.312
	c1.164,1.641,2.319,3.288,3.494,4.92c0.121,0.169,0.354,0.259,0.535,0.386c0.119-0.2,0.315-0.389,0.346-0.602
	c0.449-2.391,1.082-4.377,1.354-5.931C75.28,0.287,75.32,0.012,75.641,0c0.358-0.013,0.39,0.279,0.429,0.557
	c0.336,1.762,1.266,3.96,1.331,5.711c0.042,0.28,0.155,0.688,0.351,0.776c0.387,0.172,0.517-0.284,0.694-0.531
	c1.093-1.528,2.174-3.064,3.259-4.598c0.052-0.072,0.088-0.173,0.158-0.211c0.174-0.094,0.364-0.16,0.547-0.237
	c0.063,0.191,0.214,0.402,0.176,0.57c-0.366,1.614-0.763,3.221-1.151,4.83c-0.086,0.359-0.196,0.715-0.246,1.079
	c-0.025,0.179,0,0.456,0.112,0.536c0.115,0.083,0.397,0.037,0.547-0.052c1.628-0.964,3.245-1.949,4.865-2.928
	c0.228-0.138,0.501-0.353,0.69-0.047c0.093,0.149,0.026,0.484-0.086,0.661c-0.93,1.477-1.893,2.931-2.827,4.405
	c-0.12,0.189-0.129,0.448-0.189,0.675c0.244,0.045,0.497,0.16,0.729,0.126c1.448-0.21,2.891-0.454,4.336-0.686
	c0.251-0.041,0.522-0.102,0.633,0.225c0.108,0.319-0.143,0.45-0.353,0.586c-1.341,0.868-2.689,1.725-4.02,2.607
	c-0.168,0.111-0.25,0.353-0.373,0.533c0.174,0.11,0.334,0.279,0.523,0.322c1.628,0.371,3.261,0.718,4.893,1.074
	c0.116,0.025,0.251,0.024,0.34,0.088c0.131,0.094,0.324,0.244,0.314,0.354c-0.013,0.146-0.171,0.348-0.312,0.399
	c-0.373,0.134-0.771,0.2-1.159,0.291c-1.18,0.275-2.363,0.536-3.537,0.835c-0.209,0.053-0.378,0.262-0.566,0.399
	c0.147,0.164,0.263,0.384,0.446,0.483c1.206,0.659,2.426,1.292,3.641,1.935c0.065,0.035,0.153,0.054,0.191,0.108
	c0.115,0.164,0.21,0.342,0.313,0.514c-0.166,0.09-0.33,0.253-0.499,0.26c-0.798,0.027-1.598,0.012-2.397,0.012
	C87.446,21.657,87.446,21.652,87.446,21.648z"/>
<radialGradient id="SVGID_1_" cx="75.7212" cy="20.8936" r="11.0499" gradientUnits="userSpaceOnUse">
	<stop  offset="0.3" style="stop-color:#FDEA65"/>
	<stop  offset="1" style="stop-color:#FCB431"/>
</radialGradient>
<path class="st4" d="M71.603,33.652c-0.09-0.64-0.137-1.244-0.264-1.832c-0.711-3.286-1.682-6.491-3.133-9.532
	c-0.502-1.054-1.07-2.076-1.304-3.233c-0.475-2.357-0.127-4.583,1.133-6.643c1.34-2.192,3.299-3.552,5.795-4.066
	c2.904-0.598,5.526,0.072,7.798,2.007c1.602,1.365,2.556,3.113,2.95,5.163c0.406,2.103,0.066,4.105-0.988,5.968
	c-0.821,1.452-1.652,2.897-2.143,4.503c-0.341,1.117-0.653,2.241-0.99,3.359c-0.034,0.11-0.138,0.254-0.236,0.28
	c-2.557,0.678-4.874,1.888-7.143,3.204C72.602,33.106,72.115,33.367,71.603,33.652z"/>
<g>
	<polygon class="st2" points="610.031,87.801 610.031,90.618 596.625,90.618 596.625,72.687 609.902,72.687 609.902,75.505 
		599.772,75.505 599.772,80.168 608.751,80.168 608.751,82.986 599.772,82.986 599.772,87.801 	"/>
	<path class="st2" d="M584.123,75.272c-3.404,0-5.912,2.818-5.912,6.328v0.05c0,3.51,2.483,6.354,5.912,6.354
		c2.2,0,3.607-0.87,5.14-2.307l2.024,2.05c-1.866,1.946-3.914,3.177-7.269,3.177c-5.218,0.004-9.105-4.07-9.105-9.221v-0.052
		c0-5.098,3.81-9.271,9.233-9.271c3.303,0,5.298,1.151,7.013,2.792l-2.021,2.327C587.703,76.168,586.171,75.272,584.123,75.272z"/>
	<polygon class="st2" points="566.425,90.618 556.549,77.86 556.549,90.618 553.451,90.618 553.451,72.687 553.455,72.687 
		556.369,72.687 565.969,85.087 565.969,72.687 569.061,72.687 569.061,90.618 	"/>
	<polygon class="st2" points="547.679,87.801 547.679,90.618 534.274,90.618 534.274,72.687 547.553,72.687 547.553,75.505 
		537.421,75.505 537.421,80.168 546.4,80.168 546.4,82.986 537.421,82.986 537.421,87.801 	"/>
	<path class="st2" d="M520.521,83.345v-2.744h7.626v7.534c-1.766,1.51-4.298,2.794-7.472,2.794c-5.608,0-9.292-3.998-9.292-9.225
		v-0.052c0-5.02,3.838-9.271,9.236-9.271c3.122,0,5.042,0.871,6.886,2.434l-1.996,2.382c-1.384-1.178-2.736-1.922-5.014-1.922
		c-3.303,0-5.809,2.896-5.809,6.328v0.05c0,3.688,2.433,6.406,6.093,6.406c1.686,0,3.222-0.538,4.323-1.36v-3.354H520.521z"/>
	<rect x="502.203" y="72.687" class="st2" width="3.146" height="17.932"/>
	<polygon class="st2" points="484.148,90.618 484.148,72.687 487.295,72.687 487.295,87.748 496.713,87.748 496.713,90.618 	"/>
	<polygon class="st2" points="466.272,90.618 466.272,72.687 469.421,72.687 469.421,87.748 478.835,87.748 478.835,90.618 	"/>
	<polygon class="st2" points="460.495,87.801 460.495,90.618 447.093,90.618 447.093,72.687 460.367,72.687 460.367,75.505 
		450.236,75.505 450.236,80.168 459.219,80.168 459.219,82.986 450.236,82.986 450.236,87.801 	"/>
	<polygon class="st2" points="436.045,75.606 436.045,90.618 432.875,90.618 432.875,75.606 432.873,75.606 427.19,75.606 
		427.19,72.687 441.723,72.687 441.723,75.606 	"/>
	<polygon class="st2" points="419.19,90.618 409.316,77.86 409.316,90.618 406.219,90.618 406.219,72.687 406.221,72.687 
		409.135,72.687 418.73,85.087 418.73,72.687 421.825,72.687 421.825,90.618 	"/>
	<rect x="396.249" y="72.687" class="st2" width="3.146" height="17.932"/>
	<polygon class="st2" points="368.475,90.618 368.475,72.687 371.621,72.687 371.621,87.748 381.035,87.748 381.035,90.618 	"/>
	<path class="st2" d="M355.488,72.561h-2.92l-7.878,18.058h3.225l1.842-4.33h8.47l1.814,4.33h3.326L355.488,72.561z M350.907,83.496
		l3.069-7.172l3.097,7.172H350.907z"/>
	<rect x="336.251" y="72.687" class="st2" width="3.144" height="17.932"/>
	<path class="st2" d="M323.568,75.272c-3.401,0-5.909,2.818-5.909,6.328v0.05c0,3.51,2.483,6.354,5.909,6.354
		c2.202,0,3.61-0.87,5.143-2.307l2.023,2.05c-1.867,1.946-3.916,3.177-7.27,3.177c-5.218,0.004-9.104-4.07-9.104-9.221v-0.052
		c0-5.098,3.811-9.271,9.234-9.271c3.302,0,5.298,1.151,7.01,2.792l-2.021,2.327C327.15,76.168,325.617,75.272,323.568,75.272z"/>
	<rect x="305.179" y="72.687" class="st2" width="3.144" height="17.932"/>
	<polygon class="st2" points="289.323,75.557 289.323,80.448 298.355,80.448 298.355,83.318 289.323,83.318 289.323,90.618 
		286.177,90.618 286.177,72.687 299.507,72.687 299.507,75.557 	"/>
	<rect x="276.203" y="72.687" class="st2" width="3.146" height="17.932"/>
	<polygon class="st2" points="264.979,75.606 264.979,90.618 261.807,90.618 261.807,75.606 256.125,75.606 256.125,72.687 
		270.659,72.687 270.659,75.606 	"/>
	<path class="st2" d="M247.331,83.83c2.482-0.718,4.248-2.483,4.248-5.43v-0.052c0-1.562-0.536-2.896-1.484-3.868
		c-1.148-1.128-2.916-1.794-5.168-1.794h-7.982v17.932h3.146v-6.25h3.94l4.402,6.25h3.734L247.331,83.83z M240.093,81.576v-6.02
		h4.58c2.328,0,3.71,1.05,3.71,2.97v0.054c0,1.816-1.434,2.996-3.686,2.996H240.093z"/>
	<path class="st2" d="M223.959,72.561h-2.92l-7.882,18.058h3.226l1.842-4.33h8.47l1.816,4.33h3.326L223.959,72.561z M219.377,83.496
		l3.068-7.172l3.098,7.172H219.377z"/>
	<path class="st2" d="M199.913,79.702c-0.742,0-0.972-0.485-0.972-0.947c0-0.486,0.13-0.616,0.13-0.744
		c0-0.179-0.104-0.254-0.334-0.254c-1.202,0-3.326,2.739-3.684,3.945l-1.866,6.353h-1.994l2.966-10.09h-1.766l0.102-0.412h0.948
		c1.306,0,2.354-0.053,3.044-0.562l-1.05,3.174l0.05,0.053c0.694-1.254,2.508-3.074,4.12-3.074c1.126,0,1.636,0.616,1.636,1.28
		C201.243,79.269,200.553,79.702,199.913,79.702z"/>
	<path class="st2" d="M184.161,76.99c-3.786,0-6.652,3.69-6.65,6.891c0,2.485,1.328,4.483,4.144,4.483
		c3.07,0,6.422-3.098,6.422-7.25C188.077,78.526,185.951,76.99,184.161,76.99z M184.185,86.418c-0.229,0.36-1.021,1.538-2.608,1.538
		c-1.46,0-2.226-1-2.226-2.229c0-1.206,1.382-5.636,1.92-6.559c0.562-0.974,1.434-1.768,2.736-1.77c1.458,0,2.226,0.794,2.226,2.052
		C186.233,80.937,184.851,85.292,184.185,86.418z"/>
	<path class="st2" d="M179.099,71.816c-0.742,0-1.228-0.538-1.228-1.1c0-0.69,0.408-0.82,0.408-1.051
		c0-0.208-0.206-0.208-0.358-0.208c-1.536,0-2.916,3.946-3.25,5.179l-0.794,2.92h2.688l-0.076,0.41h-2.686
		c-1.51,5.226-2.662,10.144-3.814,12.474c-1.74,3.536-2.764,4.228-4.374,4.228c-0.87,0-1.538-0.77-1.538-1.485
		c0-0.769,0.566-1.278,1.152-1.278c0.692,0,1.152,0.433,1.152,1.05c0,0.742-0.488,0.742-0.488,1.051
		c0,0.178,0.156,0.254,0.384,0.254c0.436,0,1.434-0.385,2.124-2.511c0.896-2.766,1.998-9.016,3.304-13.781h-2.254l0.104-0.41h2.252
		c0.742-2.92,1.968-5.204,3.352-6.639c1.254-1.279,2.33-1.867,3.454-1.867c0.92,0,1.712,0.64,1.712,1.588
		C180.325,71.33,179.765,71.816,179.099,71.816z"/>
	<polygon class="st2" points="517.48,56.98 517.48,59.375 500.493,59.375 500.493,36.074 517.311,36.074 517.311,38.473 
		503.121,38.473 503.121,46.428 515.818,46.428 515.818,48.826 503.121,48.826 503.121,56.98 	"/>
	<polygon class="st2" points="484.431,38.508 484.431,59.377 481.769,59.377 481.769,38.508 473.959,38.508 473.959,36.074 
		492.245,36.074 492.245,38.508 	"/>
	<path class="st2" d="M456.373,59.742c-5.752,0-9.676-3.525-9.676-10.117V36.074h2.628v13.385c0,5.025,2.689,7.855,7.111,7.855
		c4.292,0,7.019-2.594,7.019-7.689V36.074h2.624v13.35C466.079,56.217,462.188,59.742,456.373,59.742z"/>
	<polygon class="st2" points="431.003,38.508 431.003,59.377 428.347,59.377 428.347,38.508 428.345,38.508 420.533,38.508 
		420.533,36.074 438.814,36.074 438.814,38.508 	"/>
	<rect x="409.429" y="36.074" class="st2" width="2.624" height="23.303"/>
	<polygon class="st2" points="393.133,38.508 393.133,59.377 390.477,59.377 390.477,38.508 382.663,38.508 382.663,36.074 
		400.947,36.074 400.947,38.508 	"/>
	<path class="st2" d="M368.566,46.467c5.185,1.132,7.578,3.027,7.578,6.588v0.066c0,3.995-3.321,6.592-7.945,6.592
		c-3.692-0.002-6.715-1.232-9.507-3.732l1.631-1.93c2.426,2.195,4.752,3.298,7.978,3.298c3.124,0,5.186-1.668,5.186-3.962v-0.068
		c0-2.162-1.163-3.395-6.052-4.426c-5.352-1.164-7.81-2.896-7.81-6.723v-0.065c0-3.662,3.224-6.358,7.646-6.358
		c3.389,0,5.818,0.967,8.179,2.862l-1.528,2.03c-2.162-1.764-4.324-2.53-6.718-2.53c-3.024,0-4.954,1.666-4.954,3.763v0.067
		C362.249,44.135,363.447,45.366,368.566,46.467z"/>
	<polygon class="st2" points="348.219,59.377 333.192,40.271 333.192,59.377 330.633,59.377 330.633,36.074 333.093,36.074 
		347.753,54.75 347.753,36.074 350.312,36.074 350.312,59.377 	"/>
	<rect x="317.865" y="36.074" class="st2" width="2.626" height="23.303"/>
	<polygon class="st2" points="292.331,59.377 277.305,40.271 277.305,59.377 274.745,59.377 274.745,36.074 277.205,36.074 
		291.865,54.75 291.865,36.074 294.425,36.074 294.425,59.377 	"/>
	<polygon class="st2" points="266.129,56.98 266.129,59.375 249.143,59.375 249.143,36.074 249.145,36.074 265.965,36.074 
		265.965,38.473 251.769,38.473 251.769,46.428 264.469,46.428 264.469,48.826 251.769,48.826 251.769,56.98 	"/>
	<polygon class="st2" points="225.241,59.377 225.241,36.074 227.865,36.074 227.865,56.948 240.965,56.948 240.965,59.377 	"/>
	<polygon class="st2" points="201.335,59.377 201.335,36.074 201.337,36.074 203.961,36.074 203.961,56.948 217.061,56.948 
		217.061,59.377 	"/>
	<path class="st2" d="M182.815,35.908h-2.46l-10.604,23.469h2.692l2.76-6.158h12.664l2.726,6.158h2.828L182.815,35.908z
		 M176.233,50.822l5.32-11.848l5.284,11.848H176.233z"/>
</g>
<radialGradient id="SVGID_2_" cx="75.3999" cy="42.2974" r="82.9929" gradientUnits="userSpaceOnUse">
	<stop  offset="0" style="stop-color:#3FA9D0"/>
	<stop  offset="1" style="stop-color:#183A74"/>
</radialGradient>
<path class="st0" d="M108.149,90.71l15.185-23.13c5.499-8.402,8.25-15.42,8.25-21.055c0-6.141-2.144-10.941-6.428-14.399
	c-4-3.228-10.812-4.948-17.815-5.164l-0.001-0.023c-0.167,0-0.335,0.009-0.503,0.011c-0.161-0.003-0.322-0.009-0.483-0.011
	l0.003,0.023C86.763,27.353,66,39.38,48.067,53.756l-8.918-25.735h-13.16L0,103.017h14.627c0,0,10.512-14.275,26.26-29.438
	l9.625,29.438h14.626l-13.546-39.09c5.52-4.648,11.431-9.109,17.588-12.973v52.063h13.159V43.879
	c8.4-3.721,17.022-5.945,25.505-5.756c6.715,0,10.073,2.802,10.073,8.402c0,4.725-2.346,10.544-7.035,17.461L87.398,98.555v3.846
	h48.589V90.71H108.149z M23.332,76.395l9.237-28.252l4.812,14.715C32.319,67.419,27.598,72.016,23.332,76.395z"/>
<path class="st3" d="M71.614,33.688c0.03,0.129,0.08,0.244,0.141,0.35c2.869-1.623,5.766-3.099,8.675-4.432
	c0.037-0.115,0.08-0.228,0.113-0.343c0.037-0.13,0.072-0.261,0.109-0.391H70.581c0.25,0.999,0.477,2.004,0.657,3.022
	C71.345,32.495,71.478,33.092,71.614,33.688z"/>
</svg>
