<?xml version="1.0" encoding="utf-8"?>
<!-- Generator: Adobe Illustrator 18.1.1, SVG Export Plug-In . SVG Version: 6.00 Build 0)  -->
<svg version="1.1" id="Layer_1" xmlns="http://www.w3.org/2000/svg" xmlns:xlink="http://www.w3.org/1999/xlink" x="0px" y="0px"
	 viewBox="-255 347 100 100" enable-background="new -255 347 100 100" xml:space="preserve">
<g id="Ebene_1">
	<g>
		<path d="M-187.1,382l10.4-10.4l-1.2-1.2l-10.6,10.6c-4.7-3.3-10.4-5.3-16.5-5.3c-6.2,0-11.9,2-16.5,5.3l-10.6-10.6l-1.2,1.2
			l10.4,10.4c-6.5,5.2-10.7,13.3-10.7,22.3h1.7c0-14.8,12-26.9,26.9-26.9s26.9,12.1,26.9,26.9h1.7
			C-176.4,395.3-180.6,387.2-187.1,382z"/>
		<path d="M-214.3,396.7c0-0.6-0.5-1-1-1c-0.6,0-1,0.5-1,1c0,0.6,0.5,1,1,1C-214.8,397.8-214.3,397.3-214.3,396.7z"/>
		<path d="M-193.6,396.7c0-0.6-0.5-1-1-1s-1,0.5-1,1c0,0.6,0.5,1,1,1S-193.6,397.3-193.6,396.7z"/>
		<path d="M-194.8,411c-2.8,1.1-6.3,1.6-10.2,1.6s-7.4-0.6-10.2-1.6c-2.8-1.1-4.4-2.4-5.2-3.4l-1.3,1.1c1.4,1.7,5.9,5.6,16.7,5.6
			s15.3-3.9,16.7-5.6l-1.3-1.1C-190.4,408.6-191.9,409.9-194.8,411z"/>
	</g>
</g>
<g id="Ebene_2">
</g>
</svg>
