<?xml version="1.0" encoding="utf-8"?>
<!-- Generator: Adobe Illustrator 16.0.4, SVG Export Plug-In . SVG Version: 6.00 Build 0)  -->
<!DOCTYPE svg PUBLIC "-//W3C//DTD SVG 1.1//EN" "http://www.w3.org/Graphics/SVG/1.1/DTD/svg11.dtd">
<svg version="1.1" id="Layer_1" xmlns="http://www.w3.org/2000/svg" xmlns:xlink="http://www.w3.org/1999/xlink" x="0px" y="0px"
	 width="30px" height="32px" viewBox="0 0 30 32" enable-background="new 0 0 30 32" xml:space="preserve">
<g>
	<path d="M29.367,7.811c-0.061-0.344-0.119-0.691-0.21-1.029c-0.444-1.659-1.316-3.024-2.771-3.978
		c-1.124-0.738-2.379-1.076-3.706-1.185c-0.028-0.004-0.056-0.005-0.083-0.005c-0.276,0-0.502,0.119-0.699,0.32
		c-0.531,0.542-1.068,1.081-1.605,1.619c-2.979,2.979-5.964,5.957-8.947,8.937c-1.926,1.926-3.852,3.853-5.779,5.777l7.237,7.237
		c1.325-1.331,2.65-2.662,3.979-3.989c2.426-2.426,4.852-4.848,7.279-7.269c0.105-0.104,0.214-0.21,0.318-0.317
		c1.478-1.469,2.96-2.937,4.434-4.412C29.284,9.047,29.484,8.475,29.367,7.811z"/>
	<path d="M2.883,21.24c-0.552,1.619-1.12,3.238-1.644,4.868c-0.381,1.188-0.633,2.405-0.64,3.665
		c-0.002,0.371,0.129,0.542,0.5,0.579c0.152,0.014,0.307,0.034,0.459,0.034c0.062,0,0.122-0.004,0.182-0.012
		c0.68-0.098,1.36-0.193,2.032-0.338c1.728-0.366,3.395-0.942,5.062-1.518c0.334-0.115,0.661-0.229,0.986-0.342L2.883,21.24z"/>
</g>
</svg>
