<?xml version="1.0" encoding="utf-8"?>
<!-- Generator: Adobe Illustrator 16.0.4, SVG Export Plug-In . SVG Version: 6.00 Build 0)  -->
<!DOCTYPE svg PUBLIC "-//W3C//DTD SVG 1.1//EN" "http://www.w3.org/Graphics/SVG/1.1/DTD/svg11.dtd">
<svg version="1.1" id="Layer_1" xmlns="http://www.w3.org/2000/svg" xmlns:xlink="http://www.w3.org/1999/xlink" x="0px" y="0px"
	 width="30px" height="32px" viewBox="0 0 30 32" enable-background="new 0 0 30 32" xml:space="preserve">
<g>
	<g>
		<path fill-rule="evenodd" clip-rule="evenodd" d="M19.488,7.309c-0.641-0.425-1.508-0.258-1.938,0.375L8.302,21.286l-5.152-5.598
			c-0.519-0.563-1.4-0.604-1.972-0.092c-0.57,0.515-0.612,1.389-0.092,1.953l6.371,6.923c0.276,0.3,0.653,0.452,1.032,0.452
			c0.336,0,0.672-0.12,0.939-0.359c0.159-0.144,0.273-0.315,0.349-0.5L19.868,9.226C20.299,8.593,20.13,7.734,19.488,7.309z
			 M27.741,10.645h-6.243l-2.089,3.06h8.332c0.849,0,1.538-0.685,1.538-1.53C29.279,11.33,28.59,10.645,27.741,10.645z
			 M26.722,21.867H13.512l-2.092,3.06h15.301c0.848,0,1.537-0.687,1.537-1.53C28.259,22.552,27.569,21.867,26.722,21.867z
			 M27.23,16.256h-9.727l-2.089,3.06H27.23c0.85,0,1.538-0.685,1.538-1.529C28.769,16.94,28.08,16.256,27.23,16.256z"/>
	</g>
</g>
</svg>
