<?xml version="1.0" encoding="utf-8"?>
<!-- Generator: Adobe Illustrator 16.0.4, SVG Export Plug-In . SVG Version: 6.00 Build 0)  -->
<!DOCTYPE svg PUBLIC "-//W3C//DTD SVG 1.1//EN" "http://www.w3.org/Graphics/SVG/1.1/DTD/svg11.dtd">
<svg version="1.1" id="Layer_1" xmlns="http://www.w3.org/2000/svg" xmlns:xlink="http://www.w3.org/1999/xlink" x="0px" y="0px"
	 width="30px" height="32px" viewBox="0 0 30 32" enable-background="new 0 0 30 32" xml:space="preserve">
<path d="M10.792,17.268c2.434-2.694,3.652-5.014,3.652-6.957c0-1.634-0.689-2.452-2.065-2.452c-0.614,0-1.111,0.21-1.492,0.629
	c-0.38,0.42-0.572,0.895-0.572,1.425c0,0.265,0.032,0.529,0.095,0.795c0.064,0.265,0.154,0.519,0.271,0.762
	c0.116,0.243,0.207,0.447,0.27,0.612c0.063,0.166,0.095,0.304,0.095,0.414c0,0.774-0.562,1.944-1.683,3.513L10.792,17.268z
	 M16.984,17.268c2.436-2.694,3.652-5.014,3.652-6.957c0-1.634-0.688-2.452-2.062-2.452c-0.615,0-1.113,0.21-1.494,0.629
	c-0.381,0.42-0.572,0.895-0.572,1.425c0,0.265,0.033,0.529,0.096,0.795c0.062,0.265,0.154,0.519,0.271,0.762
	c0.117,0.243,0.207,0.447,0.271,0.612c0.063,0.166,0.096,0.304,0.096,0.414c0,0.774-0.561,1.944-1.682,3.513L16.984,17.268z"/>
<path d="M23.624,4.208v23.583H6.376V4.208H23.624 M23.624,1.708H6.376c-1.381,0-2.5,1.119-2.5,2.5v23.583c0,1.381,1.119,2.5,2.5,2.5
	h17.248c1.381,0,2.5-1.119,2.5-2.5V4.208C26.124,2.828,25.005,1.708,23.624,1.708L23.624,1.708z"/>
</svg>
