<?xml version="1.0" encoding="utf-8"?>
<!-- Generator: Adobe Illustrator 16.0.4, SVG Export Plug-In . SVG Version: 6.00 Build 0)  -->
<!DOCTYPE svg PUBLIC "-//W3C//DTD SVG 1.1//EN" "http://www.w3.org/Graphics/SVG/1.1/DTD/svg11.dtd">
<svg version="1.1" id="Layer_1" xmlns="http://www.w3.org/2000/svg" xmlns:xlink="http://www.w3.org/1999/xlink" x="0px" y="0px"
	 width="30px" height="32px" viewBox="0 0 30 32" enable-background="new 0 0 30 32" xml:space="preserve">
<g>
	<path d="M18.221,12.5c0,1.104-0.897,2-2.006,2H3.632c-1.108,0-2.006-0.896-2.006-2v-8c0-1.104,0.898-2,2.006-2h12.583
		c1.107,0,2.006,0.896,2.006,2V12.5z"/>
	<path d="M28.375,7.963c0,0.958-0.779,1.736-1.738,1.736H22.91c-0.959,0-1.736-0.778-1.736-1.736V4.236
		c0-0.958,0.777-1.736,1.736-1.736h3.727c0.959,0,1.738,0.778,1.738,1.736V7.963z"/>
	<path d="M28.375,17.359c0,0.961-0.779,1.738-1.736,1.738H22.91c-0.959,0-1.736-0.777-1.736-1.738v-3.726
		c0-0.959,0.777-1.737,1.736-1.737h3.729c0.957,0,1.736,0.778,1.736,1.737V17.359z"/>
	<path d="M28.375,27.764c0,0.959-0.779,1.736-1.736,1.736H22.91c-0.957,0-1.736-0.777-1.736-1.736v-3.727
		c0-0.958,0.779-1.736,1.736-1.736h3.729c0.957,0,1.736,0.778,1.736,1.736V27.764z"/>
	<path d="M18.221,27.5c0,1.104-0.897,2-2.006,2H3.632c-1.108,0-2.006-0.896-2.006-2v-8c0-1.104,0.898-2,2.006-2h12.583
		c1.107,0,2.006,0.896,2.006,2V27.5z"/>
</g>
</svg>
