<?xml version="1.0" encoding="utf-8"?>
<!-- Generator: Adobe Illustrator 16.0.4, SVG Export Plug-In . SVG Version: 6.00 Build 0)  -->
<!DOCTYPE svg PUBLIC "-//W3C//DTD SVG 1.1//EN" "http://www.w3.org/Graphics/SVG/1.1/DTD/svg11.dtd">
<svg version="1.1" id="Layer_1" xmlns="http://www.w3.org/2000/svg" xmlns:xlink="http://www.w3.org/1999/xlink" x="0px" y="0px"
	 width="30px" height="32px" viewBox="0 0 30 32" enable-background="new 0 0 30 32" xml:space="preserve">
<g>
	<path fill-rule="evenodd" clip-rule="evenodd" d="M19.638,25.524c0.558,0,1.1,0.016,1.642-0.004
		c1.045-0.037,1.581-0.558,1.596-1.598c0.021-1.601,0.006-3.203,0.017-4.806c0.002-0.318,0.023-0.643,0.085-0.954
		c0.253-1.276,0.953-1.884,2.342-2.063c0.09-0.011,0.179-0.025,0.271-0.092c-0.192-0.031-0.385-0.06-0.577-0.093
		c-1.217-0.211-1.892-0.898-2.059-2.113c-0.042-0.306-0.061-0.617-0.062-0.925c-0.008-1.57,0.008-3.141-0.014-4.71
		c-0.016-1.067-0.543-1.589-1.601-1.626c-0.541-0.02-1.083-0.004-1.638-0.004c0-1.135,0-2.207,0-3.316c0.198,0,0.376-0.001,0.555,0
		c0.907,0.006,1.817-0.025,2.723,0.025c1.81,0.1,2.959,1.131,3.286,2.923c0.084,0.459,0.12,0.932,0.125,1.399
		c0.015,1.538,0.006,3.076,0.006,4.614c0,1.021,0.386,1.605,1.361,1.913c0.542,0.171,1.116,0.24,1.706,0.36c0,1.032,0,2.115,0,3.168
		c-0.53,0.093-1.053,0.145-1.549,0.284c-0.692,0.196-1.277,0.562-1.465,1.328c-0.048,0.194-0.051,0.401-0.053,0.603
		c-0.01,1.741-0.001,3.481-0.028,5.223c-0.013,0.831-0.197,1.632-0.665,2.34c-0.622,0.94-1.546,1.361-2.632,1.407
		c-1.088,0.048-2.178,0.023-3.268,0.028c-0.028,0-0.058-0.018-0.104-0.033C19.638,27.73,19.638,26.657,19.638,25.524z"/>
	<path fill-rule="evenodd" clip-rule="evenodd" d="M10.357,25.544c0,1.119,0,2.186,0,3.241c-0.03,0.021-0.049,0.042-0.065,0.042
		c-1.195-0.013-2.395,0.028-3.584-0.056c-1.432-0.101-2.521-1.134-2.861-2.624c-0.112-0.495-0.172-1.013-0.18-1.521
		c-0.022-1.591-0.025-3.184-0.001-4.774c0.014-0.899-0.392-1.509-1.203-1.804C1.88,17.836,1.254,17.743,0.6,17.585
		c0-0.994,0-2.077,0-3.17c0.385-0.056,0.785-0.098,1.179-0.179c0.258-0.053,0.513-0.144,0.756-0.25
		c0.747-0.328,1.137-0.886,1.13-1.726c-0.015-1.634-0.011-3.269-0.002-4.903c0.004-0.74,0.099-1.469,0.396-2.158
		C4.484,4.207,5.224,3.501,6.282,3.37c1.337-0.165,2.696-0.146,4.069-0.208c0,1.165,0,2.238,0,3.374
		c-0.55,0-1.092-0.016-1.633,0.004C7.634,6.579,7.11,7.128,7.105,8.224C7.099,9.762,7.107,11.3,7.101,12.838
		c-0.002,0.33-0.021,0.664-0.076,0.988c-0.221,1.302-0.944,1.95-2.348,2.132c-0.093,0.012-0.185,0.022-0.284,0.089
		c0.19,0.031,0.382,0.058,0.571,0.092c1.279,0.234,1.945,0.941,2.083,2.233c0.039,0.371,0.053,0.745,0.055,1.118
		c0.006,1.389,0.002,2.777,0.003,4.166c0,0.118,0,0.235,0.005,0.353c0.045,0.908,0.558,1.444,1.465,1.503
		c0.468,0.029,0.938,0.021,1.408,0.03C10.098,25.546,10.213,25.544,10.357,25.544z"/>
</g>
</svg>
