<?xml version="1.0" encoding="utf-8"?>
<!-- Generator: Adobe Illustrator 16.0.4, SVG Export Plug-In . SVG Version: 6.00 Build 0)  -->
<!DOCTYPE svg PUBLIC "-//W3C//DTD SVG 1.1//EN" "http://www.w3.org/Graphics/SVG/1.1/DTD/svg11.dtd">
<svg version="1.1" id="Layer_1" xmlns="http://www.w3.org/2000/svg" xmlns:xlink="http://www.w3.org/1999/xlink" x="0px" y="0px"
	 width="30px" height="32px" viewBox="0 0 30 32" enable-background="new 0 0 30 32" xml:space="preserve">
<path d="M4.058,8.659c1.357,1.071,2.962,1.58,4.602,1.981c2.322,0.569,4.689,0.708,7.072,0.663c2.224-0.042,4.415-0.287,6.552-0.922
	c1.307-0.387,2.576-0.865,3.66-1.734c1.333-1.071,1.345-2.567,0.033-3.671C25.158,4.289,24.2,3.87,23.21,3.514
	c-2.663-0.957-5.428-1.222-8.228-1.248c-2.503,0.024-4.981,0.238-7.389,0.977c-1.273,0.392-2.52,0.853-3.568,1.717
	C2.683,6.068,2.696,7.583,4.058,8.659z M26.958,19.578c0-0.119-0.018-0.236-0.034-0.461c-0.351,0.994-0.961,1.621-1.715,2.127
	c-1.161,0.777-2.464,1.195-3.812,1.488c-2.733,0.588-5.505,0.648-8.282,0.537c-2.249-0.09-4.476-0.338-6.599-1.148
	c-1.473-0.562-2.806-1.32-3.492-2.893v0.43c0,1.65-0.029,3.301,0.018,4.949c0.014,0.484,0.144,1.02,0.393,1.428
	c0.317,0.518,0.758,0.992,1.235,1.373c1.204,0.965,2.642,1.422,4.122,1.75c2.511,0.555,5.06,0.627,7.615,0.549
	c1.729-0.051,3.446-0.221,5.131-0.637c1.573-0.389,3.083-0.93,4.293-2.082c0.738-0.701,1.171-1.52,1.141-2.594
	C26.926,22.791,26.96,21.184,26.958,19.578z M4.851,18.426c0.96,0.74,2.088,1.164,3.259,1.441c4.273,1.014,8.571,0.988,12.873,0.207
	c1.519-0.277,2.973-0.773,4.243-1.693c1.141-0.828,1.838-1.861,1.752-3.38c-0.082-1.482-0.018-2.972-0.018-4.459v-0.431
	c-0.567,1.331-1.622,2.138-2.885,2.618c-1.178,0.449-2.404,0.825-3.642,1.052c-3.01,0.553-6.053,0.52-9.092,0.257
	c-1.916-0.167-3.807-0.508-5.565-1.345c-1.17-0.556-2.2-1.281-2.752-2.584v0.435c0,1.637,0.012,3.271-0.005,4.906
	c-0.006,0.591,0.12,1.146,0.475,1.589C3.896,17.543,4.343,18.033,4.851,18.426z"/>
</svg>
