<?xml version="1.0" encoding="utf-8"?>
<!-- Generator: Adobe Illustrator 16.0.4, SVG Export Plug-In . SVG Version: 6.00 Build 0)  -->
<!DOCTYPE svg PUBLIC "-//W3C//DTD SVG 1.1//EN" "http://www.w3.org/Graphics/SVG/1.1/DTD/svg11.dtd">
<svg version="1.1" id="Layer_1" xmlns="http://www.w3.org/2000/svg" xmlns:xlink="http://www.w3.org/1999/xlink" x="0px" y="0px"
	 width="30px" height="32px" viewBox="0 0 30 32" enable-background="new 0 0 30 32" xml:space="preserve">
<g>
	<path d="M27.292,10H2.708c-1.104,0-2-0.896-2-2s0.896-2,2-2h24.584c1.104,0,2,0.896,2,2S28.396,10,27.292,10z"/>
	<path d="M27.292,18H2.708c-1.104,0-2-0.896-2-2s0.896-2,2-2h24.584c1.104,0,2,0.896,2,2S28.396,18,27.292,18z"/>
	<path d="M14.5,26H2.708c-1.104,0-2-0.896-2-2s0.896-2,2-2H14.5c1.104,0,2,0.896,2,2S15.604,26,14.5,26z"/>
</g>
</svg>
