<?xml version="1.0" encoding="utf-8"?>
<!-- Generator: Adobe Illustrator 16.0.4, SVG Export Plug-In . SVG Version: 6.00 Build 0)  -->
<!DOCTYPE svg PUBLIC "-//W3C//DTD SVG 1.1//EN" "http://www.w3.org/Graphics/SVG/1.1/DTD/svg11.dtd">
<svg version="1.1" id="Layer_1" xmlns="http://www.w3.org/2000/svg" xmlns:xlink="http://www.w3.org/1999/xlink" x="0px" y="0px"
	 width="30px" height="32px" viewBox="0 0 30 32" enable-background="new 0 0 30 32" xml:space="preserve">
<path d="M25.656,23.739c-0.286-1.225-0.556-2.152-0.874-3.008c-1.129-3.035-2.282-6.06-3.436-9.085l-0.752-1.973
	c-0.202-0.529-0.282-0.948-0.259-1.355c0.046-0.819,0.027-1.608,0.005-2.347c-0.001-0.042-0.003-0.105,0.096-0.279
	c0.413-0.721,0.647-1.815,0.075-2.707c-0.542-0.861-1.531-1.189-2.277-1.209c-0.521-0.013-1.041-0.017-1.562-0.017L15,1.764
	l-1.799,0L11.85,1.765l-0.109,0c-1.902,0-2.396,1.371-2.502,1.792C8.998,4.51,9.392,5.375,9.57,5.699
	C9.641,5.828,9.666,5.9,9.665,5.928C9.656,6.373,9.658,6.818,9.66,7.263C9.662,7.73,9.664,8.197,9.651,8.667
	C9.645,8.955,9.607,9.06,9.603,9.074c-0.595,1.596-1.198,3.19-1.8,4.784c-0.671,1.773-1.342,3.546-2.002,5.323
	c-0.528,1.421-0.995,2.708-1.362,4.074c-0.614,2.286,0.101,3.991,2.186,5.211c0.734,0.43,1.482,0.752,2.221,0.957
	c1.945,0.542,3.98,0.817,6.05,0.817c1.663,0,3.395-0.178,5.146-0.528c1.634-0.326,2.901-0.857,3.986-1.671
	C25.452,26.976,26.046,25.408,25.656,23.739z M13.35,10.474c0.186-0.497,0.285-1.056,0.301-1.704
	c0.014-0.508,0.012-1.016,0.01-1.523c-0.002-0.413-0.004-0.827,0.004-1.236c0.002-0.083,0.001-0.165-0.002-0.247l2.683-0.003
	c-0.005,0.111-0.006,0.224-0.002,0.336c0.021,0.648,0.037,1.337-0.001,1.995c-0.055,0.973,0.114,1.957,0.516,3.007l0.751,1.972
	c0.65,1.704,1.29,3.411,1.936,5.116c-0.058,0.002-0.109,0.006-0.171,0.006c-1.661,0-1.661-0.625-3.323-0.625
	s-1.662,0.625-3.325,0.625c-1.111,0-1.485-0.277-2.104-0.463c0.309-0.818,0.614-1.639,0.924-2.458
	C12.148,13.672,12.753,12.073,13.35,10.474z"/>
</svg>
