<?xml version="1.0" encoding="utf-8"?>
<!-- Generator: Adobe Illustrator 16.0.4, SVG Export Plug-In . SVG Version: 6.00 Build 0)  -->
<!DOCTYPE svg PUBLIC "-//W3C//DTD SVG 1.1//EN" "http://www.w3.org/Graphics/SVG/1.1/DTD/svg11.dtd">
<svg version="1.1" id="Layer_1" xmlns="http://www.w3.org/2000/svg" xmlns:xlink="http://www.w3.org/1999/xlink" x="0px" y="0px"
	 width="30px" height="32px" viewBox="0 0 30 32" enable-background="new 0 0 30 32" xml:space="preserve">
<g>
	<g>
		<path d="M14.97,10.416c1.233,0,2.477,0.349,3.802,1.066c1.888,1.022,3.63,2.463,5.446,4.507c-0.158,0.182-0.316,0.36-0.476,0.534
			c-1.586,1.729-3.177,3.015-4.866,3.932c-1.398,0.76-2.669,1.13-3.884,1.13l-0.171-0.002c-1.173-0.033-2.375-0.392-3.672-1.095
			c-1.872-1.016-3.609-2.455-5.413-4.491c1.861-2.116,3.681-3.588,5.695-4.636C12.652,10.725,13.81,10.416,14.97,10.416
			 M14.97,6.416c-1.79,0-3.585,0.46-5.385,1.396C5.896,9.73,3.093,12.65,0.6,16.002c0.471,0.604,0.903,1.188,1.369,1.747
			c2.078,2.496,4.405,4.698,7.271,6.254c1.71,0.927,3.517,1.522,5.469,1.577c0.095,0.003,0.189,0.004,0.283,0.004
			c2.069,0,3.981-0.63,5.795-1.616c2.248-1.221,4.177-2.86,5.902-4.741c0.935-1.021,1.795-2.11,2.711-3.194
			c-0.608-0.765-1.147-1.488-1.731-2.171c-2.013-2.351-4.262-4.417-6.992-5.896C18.782,6.939,16.879,6.416,14.97,6.416L14.97,6.416z
			"/>
	</g>
</g>
<g>
	<path d="M15.011,12.366c-1.996-0.001-3.598,1.619-3.597,3.637c0.001,2.003,1.603,3.629,3.575,3.631
		c1.997,0.002,3.596-1.619,3.596-3.639C18.586,13.991,16.986,12.367,15.011,12.366z"/>
</g>
</svg>
