<?xml version="1.0" encoding="utf-8"?>
<!-- Generator: Adobe Illustrator 16.0.4, SVG Export Plug-In . SVG Version: 6.00 Build 0)  -->
<!DOCTYPE svg PUBLIC "-//W3C//DTD SVG 1.1//EN" "http://www.w3.org/Graphics/SVG/1.1/DTD/svg11.dtd">
<svg version="1.1" id="Layer_1" xmlns="http://www.w3.org/2000/svg" xmlns:xlink="http://www.w3.org/1999/xlink" x="0px" y="0px"
	 width="30px" height="32px" viewBox="0 0 30 32" enable-background="new 0 0 30 32" xml:space="preserve">
<g>
	<g>
		<path fill-rule="evenodd" clip-rule="evenodd" d="M24.087,1.603c-6.064-0.002-12.128-0.002-18.193,0
			C2.561,1.604,0.604,3.566,0.602,6.91c-0.003,6.037-0.002,12.074,0,18.11c0.001,3.4,1.931,5.351,5.333,5.368
			c2.748,0.015,5.496,0.005,8.244,0c0.268-0.001,0.536-0.042,0.767-0.061V19.503h-3.481v-4.391h3.6
			c-0.183-2.584-0.105-4.963,1.911-6.779c2.073-1.866,4.548-1.191,6.891-1.287v4.361c-0.492,0-0.902,0-1.312,0
			c-3.123,0-3.282,0.172-3.075,3.335c0.005,0.087,0.064,0.17,0.146,0.377h4.262v4.449h-4.348v10.821
			c1.624,0,3.169,0.022,4.713-0.005c3.214-0.056,5.145-2.044,5.146-5.278c0.003-6.068,0.004-12.137,0-18.206
			C29.396,3.579,27.415,1.604,24.087,1.603z"/>
	</g>
</g>
</svg>
