<?xml version="1.0" encoding="utf-8"?>
<!-- Generator: Adobe Illustrator 16.0.4, SVG Export Plug-In . SVG Version: 6.00 Build 0)  -->
<!DOCTYPE svg PUBLIC "-//W3C//DTD SVG 1.1//EN" "http://www.w3.org/Graphics/SVG/1.1/DTD/svg11.dtd">
<svg version="1.1" id="Layer_1" xmlns="http://www.w3.org/2000/svg" xmlns:xlink="http://www.w3.org/1999/xlink" x="0px" y="0px"
	 width="30px" height="32px" viewBox="0 0 30 32" enable-background="new 0 0 30 32" xml:space="preserve">
<path fill-rule="evenodd" clip-rule="evenodd" d="M29.397,17.48c-0.083,0.735-0.521,1.134-1.277,1.142
	c-0.784,0.009-1.572,0.021-2.356-0.005c-0.426-0.014-0.758,0.128-1.033,0.421c-0.201,0.216-0.401,0.438-0.575,0.674
	c-0.486,0.664-0.435,1.258,0.151,1.841c0.592,0.587,1.191,1.169,1.784,1.757c0.591,0.586,0.589,1.181,0,1.762
	c-0.644,0.632-1.284,1.264-1.927,1.895c-0.59,0.58-1.192,0.579-1.79-0.007c-0.574-0.559-1.135-1.133-1.721-1.679
	c-0.159-0.147-0.395-0.307-0.595-0.305c-0.558,0.005-1.138,0.012-1.666,0.162c-0.588,0.17-0.769,0.709-0.773,1.282
	c-0.006,0.826,0.008,1.654-0.008,2.483c-0.005,0.232-0.045,0.481-0.144,0.69c-0.187,0.399-0.551,0.609-0.987,0.616
	c-0.992,0.02-1.988,0.038-2.98-0.004c-0.729-0.033-1.127-0.509-1.137-1.236c-0.008-0.815,0.018-1.633-0.015-2.449
	c-0.008-0.241-0.095-0.543-0.258-0.706c-0.359-0.363-0.765-0.691-1.197-0.968c-0.414-0.267-1.031-0.098-1.476,0.333
	c-0.607,0.589-1.207,1.188-1.811,1.777c-0.607,0.596-1.2,0.591-1.812-0.011c-0.651-0.64-1.302-1.278-1.949-1.92
	c-0.533-0.526-0.538-1.135-0.006-1.668c0.582-0.582,1.182-1.144,1.752-1.739c0.156-0.163,0.319-0.408,0.319-0.614
	c0-0.538-0.031-1.091-0.161-1.609c-0.118-0.475-0.554-0.706-1.034-0.741c-0.518-0.038-1.04-0.01-1.56-0.01c0-0.006,0-0.013,0-0.02
	c-0.432,0-0.864,0.005-1.295-0.002c-0.767-0.012-1.244-0.415-1.274-1.172c-0.037-0.944-0.037-1.893,0.003-2.837
	c0.032-0.755,0.509-1.153,1.282-1.162c0.82-0.007,1.64,0.02,2.458-0.014c0.254-0.011,0.565-0.104,0.744-0.27
	c0.358-0.333,0.675-0.721,0.946-1.125c0.285-0.426,0.132-1.039-0.314-1.485C5.108,9.961,4.501,9.372,3.9,8.777
	c-0.61-0.603-0.609-1.183,0-1.783c0.643-0.633,1.284-1.265,1.927-1.896C6.4,4.534,7.011,4.534,7.592,5.103
	c0.574,0.56,1.134,1.134,1.721,1.68c0.16,0.149,0.393,0.311,0.591,0.309c0.567-0.003,1.158-0.007,1.696-0.161
	c0.57-0.164,0.751-0.698,0.757-1.257c0.01-0.807,0.001-1.613,0.005-2.419c0-0.141,0.005-0.284,0.024-0.423
	c0.068-0.459,0.4-0.844,0.867-0.919c1.154-0.189,2.315-0.194,3.468,0c0.553,0.092,0.885,0.556,0.893,1.176
	c0.01,0.784,0.02,1.569-0.003,2.353c-0.013,0.404,0.116,0.728,0.407,0.991c0.245,0.219,0.495,0.437,0.766,0.625
	c0.617,0.427,1.223,0.374,1.766-0.149c0.617-0.594,1.222-1.202,1.834-1.8c0.594-0.581,1.19-0.576,1.789,0.012
	c0.658,0.647,1.316,1.293,1.973,1.942c0.514,0.51,0.519,1.13,0.006,1.644c-0.583,0.584-1.184,1.148-1.753,1.741
	c-0.157,0.165-0.326,0.405-0.326,0.612c0.001,0.548,0.013,1.118,0.165,1.638c0.168,0.563,0.706,0.746,1.274,0.753
	c0.786,0.01,1.572,0.002,2.359,0.002c0.098,0,0.197-0.001,0.298,0.002c0.697,0.026,1.163,0.408,1.215,1.094
	c0.058,0.79,0.046,1.587,0.058,2.381C29.443,17.11,29.417,17.296,29.397,17.48z M15.013,11.008c-2.632,0-4.765,2.114-4.765,4.723
	c0,2.608,2.133,4.721,4.765,4.721c2.631,0,4.766-2.113,4.766-4.721C19.778,13.122,17.644,11.008,15.013,11.008z"/>
</svg>
