<?xml version="1.0" encoding="utf-8"?>
<!-- Generator: Adobe Illustrator 16.0.4, SVG Export Plug-In . SVG Version: 6.00 Build 0)  -->
<!DOCTYPE svg PUBLIC "-//W3C//DTD SVG 1.1//EN" "http://www.w3.org/Graphics/SVG/1.1/DTD/svg11.dtd">
<svg version="1.1" id="Layer_1" xmlns="http://www.w3.org/2000/svg" xmlns:xlink="http://www.w3.org/1999/xlink" x="0px" y="0px"
	 width="30px" height="32px" viewBox="0 0 30 32" enable-background="new 0 0 30 32" xml:space="preserve">
<path fill-rule="evenodd" clip-rule="evenodd" d="M27.529,4.889c-0.34,0.346-0.653,0.675-0.978,0.993
	c-0.622,0.61-1.249,1.216-1.874,1.821c-0.481,0.467-0.555,0.487-1.312,0.364c0.101-0.232,0.194-0.455,0.293-0.677
	c0.366-0.822,0.285-1.262-0.392-1.852c-1.562-1.361-3.344-2.21-5.446-2.359c-2.656-0.189-5.162,0.272-7.46,1.644
	c-2.329,1.39-3.824,3.439-4.646,5.996c-0.544,1.696-0.739,3.444-0.672,5.218c0.088,2.323,0.65,4.517,1.938,6.484
	c0.942,1.442,2.165,2.625,3.539,3.656c1.373,1.03,2.846,1.873,4.514,2.348c1.644,0.467,3.302,0.427,4.951,0.1
	c0.838-0.166,1.654-0.446,2.466-0.722c0.773-0.264,1.136-0.852,1.12-1.663c-0.021-1.08-0.048-2.16-0.077-3.239
	c-0.005-0.135-0.03-0.272-0.064-0.403c-0.2-0.773-0.458-0.977-1.263-0.985c-0.599-0.007-1.198-0.022-1.796,0.006
	c-0.594,0.027-1.185,0.104-1.812,0.163c0.46-0.281,0.926-0.525,1.347-0.833c0.682-0.497,1.407-0.685,2.262-0.662
	c2.044,0.054,4.09,0.014,6.136,0.021c0.163,0.001,0.412-0.103,0.448,0.188c0.031,0.245,0.045,0.45-0.306,0.562
	c-0.589,0.188-0.653,0.74-0.659,1.258c-0.016,1.491-0.006,2.982-0.007,4.474c0,0.865-0.004,0.855-0.781,1.229
	c-2.389,1.145-4.895,1.903-7.523,2.227c-1.609,0.198-3.226,0.208-4.846,0.038c-2.088-0.219-4.104-0.686-5.976-1.646
	c-4.003-2.052-6.439-5.276-7.163-9.722c-0.494-3.033-0.308-6.018,0.91-8.88c0.955-2.247,2.468-4.065,4.413-5.535
	c1.854-1.402,3.949-2.254,6.229-2.64c1.726-0.291,3.464-0.344,5.209-0.12c1.971,0.253,3.908,0.642,5.74,1.423
	c1.11,0.473,2.186,1.026,3.275,1.546C27.341,4.742,27.404,4.801,27.529,4.889z"/>
</svg>
