<?xml version="1.0" encoding="utf-8"?>
<!-- Generator: Adobe Illustrator 16.0.4, SVG Export Plug-In . SVG Version: 6.00 Build 0)  -->
<!DOCTYPE svg PUBLIC "-//W3C//DTD SVG 1.1//EN" "http://www.w3.org/Graphics/SVG/1.1/DTD/svg11.dtd">
<svg version="1.1" id="Layer_1" xmlns="http://www.w3.org/2000/svg" xmlns:xlink="http://www.w3.org/1999/xlink" x="0px" y="0px"
	 width="30px" height="32px" viewBox="0 0 30 32" enable-background="new 0 0 30 32" xml:space="preserve">
<path d="M23.77,18.227c-0.396,0-0.782,0.048-1.155,0.128l-3.606-6.347c0.912-0.979,1.481-2.283,1.481-3.724
	c0-3.027-2.462-5.489-5.488-5.489c-3.027,0-5.49,2.462-5.49,5.489c0,1.44,0.57,2.743,1.481,3.724l-3.606,6.347
	c-0.373-0.08-0.758-0.128-1.155-0.128c-3.027,0-5.489,2.462-5.489,5.488c0,3.027,2.462,5.49,5.489,5.49
	c3.026,0,5.489-2.463,5.489-5.49c0-1.44-0.57-2.743-1.482-3.724l3.606-6.347c0.374,0.081,0.759,0.128,1.156,0.128
	c0.396,0,0.781-0.047,1.155-0.128l3.606,6.347c-0.912,0.979-1.483,2.283-1.483,3.725c0,3.026,2.464,5.488,5.49,5.488
	s5.488-2.462,5.488-5.488C29.258,20.688,26.796,18.227,23.77,18.227z M6.231,25.808c-1.154,0-2.092-0.938-2.092-2.093
	c0-1.152,0.938-2.091,2.092-2.091c1.153,0,2.091,0.938,2.091,2.091C8.323,24.869,7.385,25.808,6.231,25.808z M12.908,8.284
	c0-1.153,0.939-2.092,2.093-2.092c1.153,0,2.091,0.938,2.091,2.092s-0.938,2.091-2.091,2.091
	C13.847,10.375,12.908,9.438,12.908,8.284z M23.77,25.807c-1.153,0-2.093-0.938-2.093-2.091c0-1.152,0.939-2.092,2.093-2.092
	s2.091,0.939,2.091,2.092C25.86,24.869,24.923,25.807,23.77,25.807z"/>
</svg>
