<?xml version="1.0" encoding="utf-8"?>
<!-- Generator: Adobe Illustrator 16.0.4, SVG Export Plug-In . SVG Version: 6.00 Build 0)  -->
<!DOCTYPE svg PUBLIC "-//W3C//DTD SVG 1.1//EN" "http://www.w3.org/Graphics/SVG/1.1/DTD/svg11.dtd">
<svg version="1.1" id="Layer_1" xmlns="http://www.w3.org/2000/svg" xmlns:xlink="http://www.w3.org/1999/xlink" x="0px" y="0px"
	 width="30px" height="32px" viewBox="0 0 30 32" enable-background="new 0 0 30 32" xml:space="preserve">
<path fill-rule="evenodd" clip-rule="evenodd" d="M29.398,15.999c0,4.077,0,8.154,0.002,12.23c0,0.54-0.15,1.022-0.506,1.433
	c-0.418,0.477-0.951,0.732-1.58,0.733c-8.213,0.005-16.427,0.008-24.642-0.002c-1.135-0.001-1.953-0.877-2.049-1.821
	c-0.012-0.117-0.022-0.235-0.022-0.353C0.6,20.062,0.6,11.903,0.6,3.745c0-1.027,0.597-1.82,1.567-2.07
	C2.343,1.63,2.53,1.603,2.71,1.603C10.901,1.6,19.092,1.6,27.281,1.6c1.012,0,1.857,0.67,2.07,1.65
	c0.037,0.169,0.045,0.347,0.045,0.52C29.398,7.847,29.398,11.923,29.398,15.999z M25.174,26.146c0-0.076,0-0.132,0-0.187
	c0-0.888,0.002-1.774-0.002-2.661c-0.008-1.938-0.01-3.876-0.033-5.814c-0.006-0.453-0.07-0.907-0.141-1.356
	c-0.115-0.727-0.318-1.428-0.697-2.067c-0.473-0.8-1.145-1.356-2.021-1.669c-0.783-0.279-1.592-0.363-2.42-0.342
	c-0.439,0.012-0.867,0.074-1.289,0.198c-1.061,0.31-1.906,0.911-2.51,1.844c-0.035,0.057-0.068,0.114-0.102,0.171
	c-0.012-0.003-0.025-0.007-0.037-0.011c-0.002-0.049-0.006-0.098-0.006-0.147c-0.002-0.514,0-1.028-0.002-1.543
	c0-0.188-0.002-0.192-0.186-0.192c-1.25,0-2.5,0-3.751,0c-0.178,0-0.184,0.006-0.184,0.184c0,4.473,0.001,8.945-0.003,13.418
	c0,0.147,0.046,0.179,0.185,0.179c1.303-0.006,2.604-0.003,3.906-0.003c0.203,0,0.203,0,0.205-0.208
	c0.008-2.414,0.014-4.829,0.027-7.243c0.002-0.481,0.092-0.952,0.256-1.406c0.242-0.673,0.682-1.151,1.383-1.353
	c0.406-0.115,0.818-0.148,1.24-0.102c0.727,0.081,1.248,0.438,1.543,1.109c0.229,0.516,0.307,1.067,0.309,1.621
	c0.012,2.463,0.008,4.926,0.01,7.389c0,0.191,0,0.192,0.193,0.192c1.314,0,2.633,0,3.947,0
	C25.047,26.146,25.098,26.146,25.174,26.146z M4.853,26.146c0.068,0,0.119,0,0.17,0c1.315,0,2.633-0.003,3.948,0.003
	c0.152,0.001,0.177-0.053,0.177-0.187c-0.003-4.464-0.003-8.927-0.003-13.39c0-0.203,0-0.204-0.205-0.204c-1.293,0-2.586,0-3.878,0
	c-0.209,0-0.209,0-0.209,0.206c0,4.458,0,8.917,0,13.375C4.853,26.007,4.853,26.063,4.853,26.146z M4.514,8.027
	C4.503,9.408,5.593,10.54,7,10.532c1.423-0.007,2.497-1.089,2.505-2.495c0.008-1.392-1.122-2.491-2.502-2.499
	C5.643,5.529,4.493,6.675,4.514,8.027z"/>
</svg>
