<?xml version="1.0" encoding="utf-8"?>
<!-- Generator: Adobe Illustrator 16.0.4, SVG Export Plug-In . SVG Version: 6.00 Build 0)  -->
<!DOCTYPE svg PUBLIC "-//W3C//DTD SVG 1.1//EN" "http://www.w3.org/Graphics/SVG/1.1/DTD/svg11.dtd">
<svg version="1.1" id="Layer_1" xmlns="http://www.w3.org/2000/svg" xmlns:xlink="http://www.w3.org/1999/xlink" x="0px" y="0px"
	 width="30px" height="32px" viewBox="0 0 30 32" enable-background="new 0 0 30 32" xml:space="preserve">
<path d="M24.547,10.379c-0.361-4.8-4.209-8.479-9.167-8.764c-4.619-0.266-8.905,3.1-9.784,7.672
	c-0.475,2.472-0.031,4.849,0.76,7.176c1.73,5.092,4.684,9.469,8.065,13.583c0.406,0.495,0.772,0.468,1.206-0.063
	c2.691-3.305,5.068-6.814,6.861-10.693c1.189-2.572,2.07-5.234,2.111-8.211C24.588,10.913,24.566,10.646,24.547,10.379z
	 M14.952,15.98c-2.298-0.029-4.13-1.916-4.115-4.24c0.013-2.278,1.851-4.117,4.144-4.146c2.306-0.029,4.195,1.885,4.184,4.24
	C19.152,14.132,17.246,16.009,14.952,15.98z"/>
</svg>
