<?xml version="1.0" encoding="utf-8"?>
<!-- Generator: Adobe Illustrator 16.0.4, SVG Export Plug-In . SVG Version: 6.00 Build 0)  -->
<!DOCTYPE svg PUBLIC "-//W3C//DTD SVG 1.1//EN" "http://www.w3.org/Graphics/SVG/1.1/DTD/svg11.dtd">
<svg version="1.1" id="Layer_1" xmlns="http://www.w3.org/2000/svg" xmlns:xlink="http://www.w3.org/1999/xlink" x="0px" y="0px"
	 width="30px" height="32px" viewBox="0 0 30 32" enable-background="new 0 0 30 32" xml:space="preserve">
<g>
	<path d="M19.345,6.304h2.412l-7.941,8.287c-0.764,0.797-0.737,2.063,0.06,2.827c0.388,0.372,0.886,0.557,1.383,0.557
		c0.526,0,1.052-0.207,1.444-0.616l7.74-8.077v1.771c0,1.104,0.896,2,2,2s2-0.896,2-2V4.304c0-0.007-0.002-0.013-0.002-0.02
		c-0.001-0.087-0.014-0.173-0.026-0.26c-0.006-0.044-0.007-0.091-0.016-0.134c-0.016-0.074-0.044-0.146-0.067-0.219
		c-0.018-0.051-0.028-0.104-0.049-0.152c-0.023-0.055-0.058-0.105-0.087-0.159c-0.032-0.061-0.062-0.124-0.101-0.182
		c-0.026-0.039-0.062-0.073-0.091-0.11c-0.053-0.066-0.104-0.134-0.164-0.192c-0.005-0.005-0.009-0.011-0.014-0.016
		c-0.034-0.033-0.073-0.056-0.109-0.086c-0.06-0.05-0.118-0.101-0.184-0.144c-0.055-0.035-0.112-0.062-0.169-0.092
		c-0.058-0.03-0.114-0.063-0.176-0.088c-0.064-0.026-0.131-0.042-0.197-0.062c-0.059-0.017-0.116-0.037-0.177-0.048
		c-0.078-0.015-0.157-0.019-0.237-0.024c-0.045-0.003-0.089-0.014-0.135-0.014h-7.099c-1.104,0-2,0.896-2,2
		S18.24,6.304,19.345,6.304z"/>
	<path d="M26.967,15.969c-1.089-0.188-2.122,0.551-2.305,1.64c-0.764,4.517-4.642,7.915-9.221,8.081
		c-5.347,0.222-9.875-4.005-10.069-9.363C5.199,11.558,8.46,7.404,13.126,6.45c1.082-0.222,1.78-1.278,1.559-2.36
		c-0.222-1.082-1.279-1.781-2.36-1.559C5.736,3.879,1.13,9.741,1.375,16.471c0.268,7.394,6.367,13.227,13.708,13.226
		c0.167,0,0.335-0.003,0.503-0.009c6.467-0.235,11.942-5.035,13.02-11.413C28.79,17.186,28.056,16.153,26.967,15.969z"/>
</g>
</svg>
