<?xml version="1.0" encoding="utf-8"?>
<!-- Generator: Adobe Illustrator 16.0.4, SVG Export Plug-In . SVG Version: 6.00 Build 0)  -->
<!DOCTYPE svg PUBLIC "-//W3C//DTD SVG 1.1//EN" "http://www.w3.org/Graphics/SVG/1.1/DTD/svg11.dtd">
<svg version="1.1" id="Layer_1" xmlns="http://www.w3.org/2000/svg" xmlns:xlink="http://www.w3.org/1999/xlink" x="0px" y="0px"
	 width="30px" height="32px" viewBox="0 0 30 32" enable-background="new 0 0 30 32" xml:space="preserve">
<g>
	<g>
		<path fill-rule="evenodd" clip-rule="evenodd" d="M28.14,2.305c-0.52-0.502-1.101-0.741-1.796-0.489
			c-0.303,0.11-0.615,0.244-0.86,0.448c-0.889,0.747-1.798,1.478-2.614,2.307c-3.207,3.262-6.218,6.714-9.078,10.305
			c-1.114,1.401-2.186,2.837-3.054,4.423c-0.341,0.621-0.657,1.26-0.731,1.986c-0.086,0.859,0.479,1.527,1.303,1.564
			c0.167-0.025,0.352-0.019,0.501-0.091c0.461-0.224,0.938-0.432,1.355-0.728c1.337-0.947,2.523-2.087,3.635-3.291
			c2.472-2.671,4.918-5.369,7.336-8.089c1.336-1.501,2.623-3.052,3.712-4.757c0.353-0.549,0.637-1.158,0.854-1.776
			C28.951,3.406,28.657,2.809,28.14,2.305z M8.988,22.585c-1.247-0.354-2.34-0.081-3.144,0.985
			c-0.455,0.604-0.835,1.281-1.174,1.965c-0.546,1.105-1.308,1.935-2.474,2.326c-0.199,0.066-0.406,0.102-0.601,0.177
			C1.17,28.201,1.078,28.522,1.4,28.844c0.249,0.247,0.545,0.461,0.854,0.622c1.105,0.582,2.296,0.801,3.525,0.816
			c0.133,0,0.268,0.007,0.398,0c0.19-0.013,0.381-0.026,0.57-0.052c1.759-0.235,3.198-1.034,4.183-2.582
			c0.707-1.11,0.858-2.285,0.235-3.501C10.701,23.243,9.889,22.843,8.988,22.585z"/>
	</g>
</g>
</svg>
