<?xml version="1.0" encoding="utf-8"?>
<!-- Generator: Adobe Illustrator 16.0.4, SVG Export Plug-In . SVG Version: 6.00 Build 0)  -->
<!DOCTYPE svg PUBLIC "-//W3C//DTD SVG 1.1//EN" "http://www.w3.org/Graphics/SVG/1.1/DTD/svg11.dtd">
<svg version="1.1" id="Layer_1" xmlns="http://www.w3.org/2000/svg" xmlns:xlink="http://www.w3.org/1999/xlink" x="0px" y="0px"
	 width="30px" height="32px" viewBox="0 0 30 32" enable-background="new 0 0 30 32" xml:space="preserve">
<path fill-rule="evenodd" clip-rule="evenodd" d="M15.013,30.399c-3.049,0-6.1,0-9.149,0c-1.334-0.001-1.875-0.517-1.875-1.794
	c0-5.941,0-11.884,0-17.825c0-1.197,0.5-1.684,1.739-1.686C7.527,9.092,9.327,9.1,11.125,9.089c0.333-0.001,0.678-0.029,0.997-0.118
	c0.966-0.269,1.378-1.139,0.966-2.026c-0.119-0.256-0.302-0.488-0.48-0.714c-0.834-1.06-0.949-2.304-0.293-3.308
	c0.632-0.967,2.051-1.512,3.289-1.263c2.37,0.478,3.228,2.733,1.746,4.592c-0.128,0.161-0.264,0.32-0.368,0.496
	c-0.614,1.041-0.052,2.143,1.177,2.304c0.25,0.032,0.504,0.04,0.756,0.041c1.813,0.003,3.626-0.001,5.439,0.003
	c1.15,0.002,1.653,0.482,1.655,1.584c0.004,1.849,0.003,3.699-0.002,5.547c0,0.203-0.016,0.409-0.058,0.607
	c-0.113,0.537-0.521,0.706-1.003,0.422c-0.13-0.078-0.249-0.176-0.368-0.272c-1.077-0.88-2.288-1.229-3.636-0.711
	c-1.357,0.519-1.995,1.597-2.109,2.948c-0.049,0.597,0.006,1.235,0.176,1.81c0.68,2.279,3.277,3.036,5.224,1.562
	c0.21-0.16,0.408-0.34,0.639-0.465c0.512-0.276,0.923-0.104,1.06,0.442c0.06,0.234,0.075,0.483,0.076,0.727
	c0.006,1.795,0.005,3.59,0.003,5.384c-0.002,1.206-0.53,1.72-1.763,1.72C21.169,30.399,18.091,30.399,15.013,30.399z"/>
</svg>
