<?xml version="1.0" encoding="utf-8"?>
<!-- Generator: Adobe Illustrator 16.0.4, SVG Export Plug-In . SVG Version: 6.00 Build 0)  -->
<!DOCTYPE svg PUBLIC "-//W3C//DTD SVG 1.1//EN" "http://www.w3.org/Graphics/SVG/1.1/DTD/svg11.dtd">
<svg version="1.1" id="Layer_1" xmlns="http://www.w3.org/2000/svg" xmlns:xlink="http://www.w3.org/1999/xlink" x="0px" y="0px"
	 width="30px" height="32px" viewBox="0 0 30 32" enable-background="new 0 0 30 32" xml:space="preserve">
<g>
	<g>
		<path d="M18.766,21.593V2.506c0-0.5-0.41-0.906-0.918-0.906H4.815c-0.506,0-0.917,0.406-0.917,0.906v19.087
			c0,0.5,0.411,0.906,0.917,0.906h13.032C18.355,22.499,18.766,22.093,18.766,21.593z M22.433,25.475V6.129
			c0-0.5-0.41-0.905-0.916-0.905h-0.918v18.511c0,0.525-0.349,0.836-0.917,0.836H7.567v0.904c0,0.5,0.41,0.906,0.917,0.906h13.032
			C22.022,26.381,22.433,25.975,22.433,25.475z M25.184,8.621h-0.916v19.207c0,0.5-0.327,0.76-0.834,0.76H11.236v0.906
			c0,0.5,0.41,0.906,0.916,0.906h13.031c0.508,0,0.918-0.406,0.918-0.906V9.526C26.102,9.026,25.691,8.621,25.184,8.621z"/>
	</g>
</g>
</svg>
