<?xml version="1.0" encoding="utf-8"?>
<!-- Generator: Adobe Illustrator 16.0.4, SVG Export Plug-In . SVG Version: 6.00 Build 0)  -->
<!DOCTYPE svg PUBLIC "-//W3C//DTD SVG 1.1//EN" "http://www.w3.org/Graphics/SVG/1.1/DTD/svg11.dtd">
<svg version="1.1" id="Layer_1" xmlns="http://www.w3.org/2000/svg" xmlns:xlink="http://www.w3.org/1999/xlink" x="0px" y="0px"
	 width="30px" height="32px" viewBox="0 0 30 32" enable-background="new 0 0 30 32" xml:space="preserve">
<path fill-rule="evenodd" clip-rule="evenodd" d="M23.715,13.131c-0.006,1.841-0.405,3.59-1.255,5.227
	c-0.126,0.243-0.096,0.376,0.093,0.564c1.916,1.899,3.817,3.813,5.73,5.716c0.739,0.733,1.183,1.593,1.109,2.651
	c-0.093,1.341-0.768,2.318-2.009,2.835c-1.215,0.505-2.377,0.314-3.373-0.55c-0.65-0.563-1.238-1.204-1.85-1.812
	c-1.419-1.416-2.84-2.832-4.248-4.257c-0.176-0.176-0.301-0.189-0.516-0.075c-4.432,2.349-10.193,1.361-13.626-2.329
	c-2.231-2.397-3.277-5.244-3.163-8.509c0.187-5.31,4.275-9.95,9.511-10.821c5.647-0.94,10.88,2.068,12.905,7.417
	C23.461,10.345,23.714,11.778,23.715,13.131z M12.141,21.432c4.593,0.008,8.293-3.683,8.309-8.282
	c0.015-4.508-3.693-8.258-8.136-8.306C7.7,4.793,3.916,8.431,3.873,12.992C3.827,17.709,7.499,21.424,12.141,21.432z"/>
</svg>
