<?xml version="1.0" encoding="utf-8"?>
<!-- Generator: Adobe Illustrator 16.0.4, SVG Export Plug-In . SVG Version: 6.00 Build 0)  -->
<!DOCTYPE svg PUBLIC "-//W3C//DTD SVG 1.1//EN" "http://www.w3.org/Graphics/SVG/1.1/DTD/svg11.dtd">
<svg version="1.1" id="Layer_1" xmlns="http://www.w3.org/2000/svg" xmlns:xlink="http://www.w3.org/1999/xlink" x="0px" y="0px"
	 width="30px" height="32px" viewBox="0 0 30 32" enable-background="new 0 0 30 32" xml:space="preserve">
<path fill-rule="evenodd" clip-rule="evenodd" d="M15.468,1.548c5.024,0.154,9.412,3.229,11.243,7.928
	c0.395,1.011,0.642,2.06,0.753,3.14c0.013,0.125,0.056,0.252,0.108,0.366c0.879,1.895,1.266,3.888,1.117,5.966
	c-0.228,3.176-1.476,5.899-3.784,8.104c-1.937,1.851-4.248,2.966-6.907,3.295c-3.507,0.434-6.647-0.49-9.394-2.707
	c-0.519-0.418-1.051-0.803-1.61-1.163c-2.871-1.854-4.732-4.45-5.424-7.797c-0.844-4.085,0.164-7.718,2.913-10.866
	C4.71,7.553,4.88,7.241,5.081,6.955c2.034-2.9,4.803-4.643,8.295-5.217C14.065,1.625,14.77,1.609,15.468,1.548z M18.006,24.212
	c0.031-0.553,0.059-1.08,0.092-1.607c0.062-0.99-0.688-1.735-1.674-1.664c-0.72,0.053-1.323-0.174-1.773-0.757
	c-0.135-0.176-0.256-0.364-0.408-0.524c-0.313-0.33-0.614-0.684-0.973-0.958c-0.632-0.482-1.384-0.516-2.15-0.472
	c-0.604,0.035-1.218,0.076-1.816,0.014c-0.675-0.069-1.243-0.419-1.556-1.046c-0.377-0.756-0.234-1.487,0.237-2.164
	c0.094-0.134,0.211-0.252,0.319-0.375c0.113-0.13,0.229-0.257,0.344-0.384c0.511-0.562,0.57-1.18,0.22-1.84
	c-0.224-0.423-0.472-0.833-0.693-1.258C8,10.842,7.893,10.486,7.98,10.102c0.191-0.839,0.996-1.36,1.883-1.187
	c0.581,0.114,1.15,0.285,1.726,0.426c0.752,0.183,1.402-0.013,1.946-0.555c0.197-0.197,0.374-0.414,0.551-0.63
	c0.385-0.47,0.81-0.882,1.381-1.127c1.292-0.554,2.665,0.135,3.009,1.345c0.068,0.238,0.167,0.476,0.294,0.687
	c0.083,0.138,0.229,0.26,0.373,0.335c0.601,0.312,1.221,0.589,1.817,0.908c1.069,0.572,1.723,1.442,1.723,2.688
	c0,0.484-0.13,0.973-0.23,1.453c-0.154,0.734,0.033,1.091,0.741,1.329c0.21,0.071,0.422,0.136,0.632,0.206
	c0.298,0.102,0.479,0.31,0.597,0.602c0.207,0.521,0.239,1.035,0.041,1.566c-0.126,0.335-0.146,0.675,0.057,1.006
	c2.108-3.55,2.084-8.869-1.592-12.695C19.212,2.59,13.274,2.087,8.912,5.253c-4.149,3.012-5.664,8.74-3.184,13.537
	C8.211,23.596,13.59,25.463,18.006,24.212z M4.295,10.813c-2.09,3.488-2.06,8.625,1.296,12.404
	c3.392,3.818,8.542,4.298,12.003,2.779c0-0.329,0-0.66,0-0.99c-4.121,0.699-7.748-0.301-10.625-3.385
	C4.098,18.543,3.308,14.868,4.295,10.813z M20.043,28.222c0.137-0.047,0.214-0.064,0.282-0.098c0.545-0.267,1.108-0.503,1.629-0.812
	c1.506-0.89,2.701-2.104,3.606-3.601c0.041-0.067,0.07-0.185,0.039-0.244c-0.449-0.86-1.19-1.421-1.994-1.938
	c-0.088,0.105-0.179,0.19-0.239,0.293c-0.833,1.415-1.925,2.59-3.257,3.546c-0.053,0.037-0.113,0.104-0.118,0.162
	c-0.05,0.555-0.117,1.109-0.119,1.665C19.872,27.529,19.979,27.862,20.043,28.222z M14.287,15.95c0.78-0.104,1.595-0.213,2.41-0.322
	c0.078-0.01,0.156-0.022,0.232-0.041c0.433-0.106,0.737-0.514,0.684-0.962c-0.104-0.852-0.22-1.702-0.346-2.551
	c-0.07-0.473-0.516-0.817-0.967-0.76c-0.837,0.105-1.673,0.217-2.508,0.338c-0.54,0.077-0.87,0.492-0.806,1.028
	c0.102,0.838,0.218,1.674,0.342,2.508C13.396,15.647,13.794,15.962,14.287,15.95z M10.487,27.033
	c1.289,0.891,2.712,1.441,4.25,1.691c1.381,0.224,2.755,0.17,4.125-0.15c-0.316-0.767-0.197-1.548-0.2-2.338
	C16.023,27.515,13.305,27.772,10.487,27.033z M19.473,23.706c1.403-0.554,3.029-1.769,3.979-2.972
	c0.038-0.049,0.069-0.131,0.056-0.186c-0.09-0.352-0.244-0.673-0.513-0.924c-0.364-0.34-0.825-0.406-1.303-0.096
	c-0.622,0.402-1.211,0.858-1.795,1.315c-0.134,0.105-0.231,0.298-0.275,0.468c-0.102,0.393-0.178,0.794-0.229,1.196
	C19.342,22.904,19.332,23.306,19.473,23.706z M26.56,14.853c-0.121,1.019-0.342,2.011-0.695,2.972
	c-0.357,0.971-0.842,1.876-1.452,2.727c0.714,0.493,1.406,0.994,1.856,1.79C27.28,19.849,27.386,17.369,26.56,14.853z
	 M21.263,23.538c-0.068,0.011-0.09,0.01-0.106,0.018c-0.673,0.325-1.346,0.65-2.016,0.98c-0.05,0.024-0.113,0.083-0.116,0.129
	c-0.013,0.202-0.006,0.406-0.006,0.646C19.859,24.815,20.584,24.244,21.263,23.538z"/>
</svg>
