<?xml version="1.0" encoding="utf-8"?>
<!-- Generator: Adobe Illustrator 16.0.4, SVG Export Plug-In . SVG Version: 6.00 Build 0)  -->
<!DOCTYPE svg PUBLIC "-//W3C//DTD SVG 1.1//EN" "http://www.w3.org/Graphics/SVG/1.1/DTD/svg11.dtd">
<svg version="1.1" id="Layer_1" xmlns="http://www.w3.org/2000/svg" xmlns:xlink="http://www.w3.org/1999/xlink" x="0px" y="0px"
	 width="30px" height="32px" viewBox="0 0 30 32" enable-background="new 0 0 30 32" xml:space="preserve">
<g>
	<g>
		<path d="M17.287,15.861c0-1.839-1.461-3.331-3.26-3.331c-1.803,0-3.261,1.492-3.261,3.331c0,1.84,1.458,3.33,3.261,3.33
			C15.826,19.191,17.287,17.701,17.287,15.861z M3.858,12.53c-1.801,0-3.258,1.492-3.258,3.331c0,1.84,1.457,3.33,3.258,3.33
			s3.26-1.49,3.26-3.33C7.119,14.022,5.66,12.53,3.858,12.53z M28.789,14.525L18.564,4.301c-0.816-0.815-2.137-0.815-2.951,0
			c-0.815,0.814-0.815,2.136,0,2.95L24.363,16l-8.75,8.749c-0.815,0.814-0.815,2.135,0,2.95c0.408,0.407,0.941,0.611,1.477,0.611
			c0.533,0,1.066-0.204,1.475-0.611l10.225-10.224C29.604,16.66,29.604,15.34,28.789,14.525z"/>
	</g>
</g>
</svg>
