<?xml version="1.0" encoding="utf-8"?>
<!-- Generator: Adobe Illustrator 16.0.4, SVG Export Plug-In . SVG Version: 6.00 Build 0)  -->
<!DOCTYPE svg PUBLIC "-//W3C//DTD SVG 1.1//EN" "http://www.w3.org/Graphics/SVG/1.1/DTD/svg11.dtd">
<svg version="1.1" id="Layer_1" xmlns="http://www.w3.org/2000/svg" xmlns:xlink="http://www.w3.org/1999/xlink" x="0px" y="0px"
	 width="30px" height="32px" viewBox="0 0 30 32" enable-background="new 0 0 30 32" xml:space="preserve">
<g>
	<path fill-rule="evenodd" clip-rule="evenodd" d="M4.772,11.917c6.847,0,13.628,0,20.45,0c-0.067,0.644-0.13,1.259-0.197,1.873
		c-0.322,2.911-0.646,5.821-0.971,8.731c-0.208,1.878-0.403,3.757-0.628,5.632c-0.159,1.33-1.065,2.156-2.408,2.162
		c-4.022,0.016-8.045,0.016-12.066,0c-1.315-0.006-2.224-0.835-2.379-2.15c-0.256-2.141-0.477-4.284-0.714-6.427
		c-0.292-2.633-0.587-5.266-0.88-7.898C4.909,13.211,4.844,12.582,4.772,11.917z"/>
	<path fill-rule="evenodd" clip-rule="evenodd" d="M2.723,9.846C2.762,8.718,2.883,7.643,3.42,6.66
		c0.331-0.605,0.822-0.914,1.548-0.893C6.121,5.802,7.275,5.767,8.43,5.783C8.738,5.788,8.894,5.71,9.003,5.397
		c0.404-1.146,0.853-2.276,1.269-3.418c0.081-0.224,0.184-0.308,0.43-0.307c2.866,0.009,5.732,0.009,8.6,0
		c0.249-0.001,0.347,0.088,0.428,0.311c0.42,1.153,0.864,2.299,1.283,3.453c0.09,0.252,0.204,0.352,0.485,0.348
		c1.191-0.018,2.385,0.013,3.576-0.016c0.678-0.017,1.147,0.276,1.469,0.831c0.575,0.996,0.685,2.1,0.735,3.246
		C19.087,9.846,10.938,9.846,2.723,9.846z M10.927,5.74c2.753,0,5.428,0,8.153,0c-0.331-0.659-0.631-1.271-0.949-1.874
		c-0.039-0.074-0.178-0.133-0.271-0.134c-1.901-0.008-3.802-0.008-5.703,0c-0.095,0-0.238,0.054-0.277,0.126
		C11.556,4.47,11.252,5.091,10.927,5.74z"/>
</g>
</svg>
