<?xml version="1.0" encoding="utf-8"?>
<!-- Generator: Adobe Illustrator 16.0.4, SVG Export Plug-In . SVG Version: 6.00 Build 0)  -->
<!DOCTYPE svg PUBLIC "-//W3C//DTD SVG 1.1//EN" "http://www.w3.org/Graphics/SVG/1.1/DTD/svg11.dtd">
<svg version="1.1" id="Layer_1" xmlns="http://www.w3.org/2000/svg" xmlns:xlink="http://www.w3.org/1999/xlink" x="0px" y="0px"
	 width="30px" height="32px" viewBox="0 0 30 32" enable-background="new 0 0 30 32" xml:space="preserve">
<path fill-rule="evenodd" clip-rule="evenodd" d="M28.607,4.806c-0.475,1.367-1.299,2.372-2.42,3.203
	c0.35-0.063,0.701-0.115,1.047-0.193c0.348-0.079,0.693-0.175,1.033-0.282c0.352-0.11,0.695-0.244,1.133-0.4
	c-0.225,0.304-0.377,0.57-0.586,0.782c-0.662,0.674-1.332,1.342-2.029,1.981c-0.211,0.194-0.32,0.348-0.314,0.654
	c0.062,3.329-0.809,6.417-2.561,9.244c-2.484,4.004-6.033,6.562-10.696,7.488c-4.288,0.852-8.359,0.219-12.156-1.982
	c-0.131-0.076-0.256-0.162-0.458-0.292c3.254,0.304,6.101-0.483,8.708-2.424c-2.72-0.244-4.521-1.575-5.523-4.085
	c0.896,0.11,1.73,0.146,2.604-0.122c-3.487-0.898-4.77-3.894-4.631-5.805c0.803,0.395,1.63,0.662,2.618,0.69
	c-1.289-0.947-2.122-2.104-2.453-3.585C1.591,8.197,1.806,6.795,2.561,5.434c3.206,3.74,7.241,5.793,12.173,6.135
	c-0.035-0.429-0.09-0.82-0.097-1.213c-0.059-3.197,2.353-5.801,5.566-5.992c1.666-0.099,3.129,0.425,4.354,1.552
	c0.246,0.225,0.453,0.277,0.766,0.195c1.066-0.275,2.086-0.656,3.047-1.189C28.426,4.891,28.486,4.865,28.607,4.806z"/>
</svg>
