<?xml version="1.0" encoding="utf-8"?>
<!-- Generator: Adobe Illustrator 16.0.4, SVG Export Plug-In . SVG Version: 6.00 Build 0)  -->
<!DOCTYPE svg PUBLIC "-//W3C//DTD SVG 1.1//EN" "http://www.w3.org/Graphics/SVG/1.1/DTD/svg11.dtd">
<svg version="1.1" id="Layer_1" xmlns="http://www.w3.org/2000/svg" xmlns:xlink="http://www.w3.org/1999/xlink" x="0px" y="0px"
	 width="30px" height="32px" viewBox="0 0 30 32" enable-background="new 0 0 30 32" xml:space="preserve">
<path d="M22.124,6.047l-7.125,7.125L7.875,6.048C7.093,5.266,5.828,5.266,5.047,6.047c-0.781,0.781-0.782,2.047,0,2.829L12.171,16
	l-7.124,7.124c-0.781,0.781-0.781,2.048,0,2.829c0.782,0.781,2.047,0.78,2.828,0L15,18.828l7.125,7.125
	c0.78,0.78,2.047,0.781,2.828,0c0.781-0.78,0.779-2.047-0.001-2.827l-7.125-7.125l7.125-7.125c0.782-0.782,0.782-2.047,0-2.829
	C24.172,5.267,22.906,5.266,22.124,6.047z"/>
</svg>
